<?xml version="1.0" encoding="utf-8"?>
<!-- Generator: Adobe Illustrator 24.0.1, SVG Export Plug-In . SVG Version: 6.00 Build 0)  -->
<svg version="1.1" id="Layer_1" xmlns="http://www.w3.org/2000/svg" xmlns:xlink="http://www.w3.org/1999/xlink" x="0px" y="0px"
	 viewBox="0 0 159 48" style="enable-background:new 0 0 159 48;" xml:space="preserve">
<style type="text/css">
	.st0{fill:#FFFFFF;}
</style>
<title>Group</title>
<desc>Created with Sketch.</desc>
<g id="Page-2">
	<g id="Group">
		<g>
			<polygon class="st0" points="19.5,25.7 27.8,25.7 23.7,16.4 			"/>
			<path class="st0" d="M24,0C10.7,0,0,10.7,0,24s10.7,24,24,24s24-10.7,24-24S37.3,0,24,0z M34,33.6c-0.4,0.3-0.8,0.5-1.3,0.5
				c-0.3,0-0.6-0.1-0.9-0.3c-0.3-0.2-0.5-0.5-0.7-0.8l-1.9-4.2h-11L16.3,33c-0.2,0.4-0.4,0.7-0.7,0.8c-0.3,0.2-0.6,0.3-1,0.3
				c-0.5,0-0.9-0.2-1.3-0.5c-0.4-0.3-0.6-0.7-0.6-1.2c0-0.3,0.1-0.5,0.2-0.8L21.5,13c0.2-0.4,0.5-0.7,0.8-0.9
				c0.4-0.2,0.8-0.3,1.3-0.3c0.4,0,0.8,0.1,1.2,0.3c0.4,0.2,0.7,0.5,0.9,0.9l8.7,18.6c0.1,0.3,0.2,0.5,0.2,0.8
				C34.6,32.9,34.4,33.3,34,33.6z"/>
		</g>
		<path id="Shape_1_" class="st0" d="M80.9,32.5c0.1,0.3,0.2,0.6,0.2,0.8c0,0.5-0.2,0.9-0.6,1.2c-0.4,0.3-0.8,0.5-1.3,0.5
			c-0.3,0-0.7-0.1-1-0.3c-0.3-0.2-0.5-0.5-0.7-0.9l-1.9-4.3H64.3L62.4,34c-0.2,0.4-0.4,0.7-0.7,0.9c-0.3,0.2-0.6,0.3-1,0.3
			c-0.5,0-0.9-0.2-1.3-0.5c-0.4-0.3-0.6-0.8-0.6-1.2c0-0.3,0.1-0.6,0.2-0.8l8.8-19c0.2-0.4,0.5-0.7,0.9-1c0.4-0.2,0.8-0.4,1.3-0.4
			s0.9,0.1,1.2,0.4c0.4,0.2,0.7,0.5,0.9,1L80.9,32.5z M65.7,26.5h8.4L69.9,17L65.7,26.5z M102.4,19c1.7,0,3,0.5,3.9,1.5
			c0.9,1,1.4,2.6,1.4,4.9v7.9c0,0.6-0.2,1.1-0.6,1.4c-0.4,0.3-0.8,0.5-1.4,0.5c-0.6,0-1.1-0.2-1.4-0.5c-0.4-0.3-0.5-0.8-0.5-1.4
			v-7.9c0-1.2-0.2-2-0.6-2.5c-0.4-0.5-1-0.8-1.9-0.8c-1,0-1.9,0.4-2.5,1.1c-0.6,0.7-0.9,1.7-0.9,2.9v7.1c0,0.6-0.2,1.1-0.6,1.4
			c-0.4,0.3-0.8,0.5-1.4,0.5c-0.6,0-1.1-0.2-1.4-0.5c-0.4-0.3-0.6-0.8-0.6-1.4v-7.9c0-1.2-0.2-2-0.6-2.5c-0.4-0.5-1-0.8-1.9-0.8
			c-1,0-1.9,0.4-2.5,1.1c-0.6,0.7-0.9,1.7-0.9,2.9v7.1c0,0.6-0.2,1.1-0.6,1.4c-0.4,0.3-0.9,0.5-1.4,0.5c-0.6,0-1.1-0.2-1.4-0.5
			c-0.4-0.3-0.5-0.8-0.5-1.4V20.9c0-0.6,0.2-1.1,0.6-1.4c0.4-0.3,0.9-0.5,1.4-0.5c0.6,0,1,0.2,1.3,0.5c0.4,0.3,0.5,0.7,0.5,1.3v0.8
			c0.5-0.9,1.1-1.5,2-2c0.8-0.4,1.8-0.7,2.8-0.7c2.3,0,3.9,1,4.7,2.9c0.5-0.9,1.2-1.6,2.1-2.1C100.2,19.2,101.3,19,102.4,19z
			 M118.6,19c2.2,0,3.8,0.5,4.8,1.6c1.1,1.1,1.6,2.7,1.6,4.9v7.8c0,0.6-0.2,1-0.5,1.4c-0.3,0.3-0.8,0.5-1.4,0.5
			c-0.6,0-1-0.2-1.4-0.5c-0.3-0.3-0.5-0.8-0.5-1.3v-0.7c-0.4,0.8-0.9,1.5-1.7,2c-0.8,0.5-1.7,0.7-2.7,0.7c-1,0-2-0.2-2.8-0.6
			c-0.9-0.4-1.5-1-2-1.8c-0.5-0.7-0.7-1.6-0.7-2.5c0-1.2,0.3-2.1,0.9-2.7c0.6-0.7,1.6-1.1,2.9-1.4c1.3-0.3,3.1-0.4,5.5-0.4h0.8V25
			c0-1-0.2-1.8-0.7-2.3c-0.4-0.5-1.2-0.7-2.2-0.7c-0.6,0-1.2,0.1-1.9,0.3c-0.6,0.2-1.4,0.4-2.3,0.8c-0.6,0.3-1,0.4-1.2,0.4
			c-0.4,0-0.7-0.1-1-0.4c-0.2-0.3-0.4-0.6-0.4-1.1c0-0.4,0.1-0.7,0.3-0.9c0.2-0.3,0.5-0.5,0.9-0.8c0.7-0.4,1.6-0.7,2.7-1
			C116.5,19.1,117.5,19,118.6,19z M117.6,32.4c1.1,0,1.9-0.4,2.6-1.1c0.7-0.7,1-1.7,1-2.8v-0.7h-0.6c-1.4,0-2.5,0.1-3.3,0.2
			c-0.8,0.1-1.4,0.4-1.7,0.7c-0.3,0.3-0.5,0.8-0.5,1.3c0,0.7,0.2,1.2,0.7,1.7C116.3,32.2,116.9,32.4,117.6,32.4z M131,35.2
			c-0.6,0-1.1-0.2-1.4-0.5c-0.4-0.3-0.5-0.8-0.5-1.4V14.2c0-0.6,0.2-1.1,0.5-1.4c0.4-0.3,0.9-0.5,1.4-0.5c0.6,0,1.1,0.2,1.4,0.5
			c0.4,0.3,0.6,0.8,0.6,1.4v19.1c0,0.6-0.2,1.1-0.6,1.4C132.1,35,131.6,35.2,131,35.2z M139.2,35.2c-0.6,0-1.1-0.2-1.4-0.5
			c-0.4-0.3-0.5-0.8-0.5-1.4V20.9c0-0.6,0.2-1.1,0.5-1.4c0.4-0.3,0.9-0.5,1.4-0.5c0.6,0,1.1,0.2,1.4,0.5c0.4,0.3,0.6,0.8,0.6,1.4
			v12.4c0,0.6-0.2,1.1-0.6,1.4C140.2,35,139.7,35.2,139.2,35.2z M139.2,16.2c-0.7,0-1.3-0.2-1.7-0.6c-0.4-0.4-0.6-0.9-0.6-1.6
			s0.2-1.2,0.6-1.5c0.4-0.4,1-0.6,1.7-0.6c0.7,0,1.3,0.2,1.7,0.6c0.4,0.4,0.7,0.9,0.7,1.5s-0.2,1.2-0.6,1.6
			C140.5,16,139.9,16.2,139.2,16.2z M152.1,19c2.2,0,3.8,0.5,4.8,1.6c1.1,1.1,1.6,2.7,1.6,4.9v7.8c0,0.6-0.2,1-0.5,1.4
			c-0.3,0.3-0.8,0.5-1.4,0.5c-0.6,0-1-0.2-1.4-0.5c-0.3-0.3-0.5-0.8-0.5-1.3v-0.7c-0.4,0.8-0.9,1.5-1.7,2c-0.8,0.5-1.7,0.7-2.7,0.7
			c-1,0-2-0.2-2.8-0.6c-0.9-0.4-1.5-1-2-1.8c-0.5-0.7-0.7-1.6-0.7-2.5c0-1.2,0.3-2.1,0.9-2.7c0.6-0.7,1.6-1.1,2.9-1.4
			c1.3-0.3,3.1-0.4,5.5-0.4h0.8V25c0-1-0.2-1.8-0.7-2.3c-0.4-0.5-1.2-0.7-2.2-0.7c-0.6,0-1.2,0.1-1.9,0.3c-0.6,0.2-1.4,0.4-2.3,0.8
			c-0.6,0.3-1,0.4-1.2,0.4c-0.4,0-0.7-0.1-1-0.4c-0.2-0.3-0.4-0.6-0.4-1.1c0-0.4,0.1-0.7,0.3-0.9c0.2-0.3,0.5-0.5,0.9-0.8
			c0.7-0.4,1.6-0.7,2.7-1C150.1,19.1,151.1,19,152.1,19z M151.1,32.4c1.1,0,1.9-0.4,2.6-1.1c0.7-0.7,1-1.7,1-2.8v-0.7h-0.6
			c-1.4,0-2.5,0.1-3.3,0.2c-0.8,0.1-1.4,0.4-1.7,0.7c-0.3,0.3-0.5,0.8-0.5,1.3c0,0.7,0.2,1.2,0.7,1.7
			C149.8,32.2,150.4,32.4,151.1,32.4z"/>
	</g>
</g>
</svg>
