<?xml version="1.0" encoding="utf-8"?>
<!-- Generator: Adobe Illustrator 24.0.1, SVG Export Plug-In . SVG Version: 6.00 Build 0)  -->
<svg version="1.1" xmlns="http://www.w3.org/2000/svg" xmlns:xlink="http://www.w3.org/1999/xlink" x="0px" y="0px"
	 viewBox="0 0 750 500" style="enable-background:new 0 0 750 500;" xml:space="preserve">
<style type="text/css">
	.st0{fill:#FFFFFF;}
	.st1{fill:none;stroke:#ADBBF9;stroke-linejoin:round;stroke-miterlimit:10;stroke-dasharray:3.5,3.5;}
	.st2{fill:#E4E9F9;}
	.st3{fill:#FFFFFF;stroke:#ADBBF9;stroke-linejoin:round;stroke-miterlimit:10;}
	.st4{fill:none;stroke:#ADBBF9;stroke-linejoin:round;stroke-miterlimit:10;}
	.st5{fill:#ADBBF9;}
	.st6{fill:#849CF4;}
	.st7{fill:none;stroke:#4643BF;stroke-miterlimit:10;}
	.st8{clip-path:url(#SVGID_2_);}
	.st9{fill:url(#SVGID_3_);}
	.st10{fill:url(#SVGID_4_);}
	.st11{fill:#D3DBF4;}
	.st12{fill:none;stroke:#FFFFFF;stroke-miterlimit:10;}
	.st13{fill:#E3EAFC;}
	.st14{fill:#F0F1FF;}
	.st15{fill:#C2CFEF;}
	.st16{fill:none;stroke:#D3DBF4;stroke-miterlimit:10;}
	.st17{fill:none;stroke:#849CF4;stroke-miterlimit:10;}
	.st18{fill:#FFCBBD;}
	.st19{fill:#F7471E;}
	.st20{fill:none;stroke:#B22B19;stroke-width:0.75;stroke-miterlimit:10;}
	.st21{fill:#0E32AE;}
	.st22{fill:none;stroke:#121649;stroke-width:0.75;stroke-miterlimit:10;}
	.st23{fill:#FFCBBB;}
	.st24{fill:none;stroke:#EF977F;stroke-miterlimit:10;}
	.st25{fill:#4A1A1A;}
	.st26{fill:none;stroke:#F7A794;stroke-width:0.5;stroke-miterlimit:10;}
	.st27{fill:#212237;}
	.st28{fill:none;stroke:#212237;stroke-width:0.5;stroke-linecap:round;stroke-linejoin:round;stroke-miterlimit:10;}
	.st29{fill:none;stroke:#F7A794;stroke-miterlimit:10;}
	.st30{fill:#EF977F;}
	.st31{fill:#18277A;}
	.st32{fill:#0D219B;}
	.st33{fill:none;stroke:#E88872;stroke-width:0.5;stroke-linejoin:round;stroke-miterlimit:10;}
	.st34{fill:#28364C;}
	.st35{fill:none;stroke:#28364C;stroke-width:0.75;stroke-miterlimit:10;}
	.st36{fill:none;stroke:#525BCE;stroke-width:0.75;stroke-miterlimit:10;}
	.st37{fill:#F49C8E;}
	.st38{fill:none;stroke:#0E32AE;stroke-miterlimit:10;}
	.st39{fill:#E23917;}
	.st40{fill:none;stroke:#28364C;stroke-width:0.5;stroke-linecap:round;stroke-miterlimit:10;}
	.st41{fill:#E88872;}
	.st42{fill:none;stroke:#5565AA;stroke-width:0.75;stroke-miterlimit:10;}
	.st43{fill-rule:evenodd;clip-rule:evenodd;fill:#FFCBBB;}
	.st44{fill:none;stroke:#28364C;stroke-width:0.5;stroke-linecap:round;stroke-linejoin:round;stroke-miterlimit:10;}
	.st45{fill:#14122D;}
</style>
<g id="BACKGROUND">
	<rect class="st0" width="750" height="500"/>
</g>
<g id="OBJECTS">
	<g>
		<g>
			<path class="st1" d="M302.2,376.1c-5.8-19.9-22.2-35.2-43.5-35.7c-12.4-0.3-24.4,5-34.9,11c-14.2,8.2-31,18-48,15.5
				c-10.9-1.6-23.8-7.7-26.4-20.3c-2.7-13.4,8.1-22.5,19.6-27.9c9.9-4.6,23.8-15.6,28.2-26.2c17.6-41.8-31.7-89.5-17.7-137.2
				c14.6-49.9,81.9-58.3,115.8-24.4c3.2,3.2,6.3,6.7,9,10.4c6.9,9.2,11,21.7,20.6,28.6c12.4,8.9,28.6,6.1,42,0.8
				c25.6-10.1,32.4-16.8,57.4-27.7c18-7.8,40.2-14.8,60.4-7.9c14.5,5,30.5,14,38.6,27c15.1,24.2,8.3,50.2,32.1,84.6
				c10.8,15.6,28,19.9,41.6,31.2c35.5,29.2,23.6,90.6-15.1,111.7c-31.8,17.3-70.9,13.3-105.3,8.9c-2.6-0.3-5.3-0.7-7.9-1.1"/>
			<path class="st2" d="M553.6,149.5c3-3.4,5.6-7.2,7.8-11.4c2.2-4.2,3.8-8.5,5-12.9l-11.8-4.2c0.9-4.1,1.3-8.2,1.1-12.3l12.4-1.9
				c-0.6-9.2-3.4-18.2-8.1-26.2L548.7,86c-2.2-3.5-4.8-6.7-7.9-9.5l7.4-10.1c-3.4-3-7.2-5.6-11.4-7.8c-4.2-2.2-8.5-3.8-12.9-5
				l-4.2,11.8c-4.1-0.9-8.2-1.3-12.3-1.1l-1.9-12.4c-9.2,0.6-18.2,3.4-26.2,8.1l5.4,11.3c-3.5,2.2-6.7,4.8-9.5,7.9l-10.1-7.4
				c-3,3.4-5.6,7.2-7.8,11.4c-2.2,4.2-3.8,8.5-5,12.9l11.8,4.2c-0.9,4.1-1.3,8.2-1.1,12.3l-12.4,1.9c0.6,9.2,3.4,18.2,8.1,26.2
				l11.3-5.4c2.2,3.5,4.8,6.7,7.9,9.5l-7.4,10.1c3.4,3,7.2,5.6,11.4,7.8c4.2,2.2,8.5,3.8,12.9,5l4.2-11.8c4.1,0.9,8.2,1.3,12.3,1.1
				l1.9,12.4c9.2-0.6,18.2-3.4,26.2-8.1L534,150c3.5-2.2,6.7-4.8,9.5-7.9L553.6,149.5z M495.6,136.6c-14.4-7.6-19.9-25.4-12.3-39.8
				c7.6-14.4,25.4-19.9,39.8-12.3c14.4,7.6,19.9,25.4,12.3,39.8C527.8,138.7,510,144.2,495.6,136.6z M499.6,129.1
				c-10.2-5.4-14.1-18-8.7-28.2c5.4-10.2,18-14.1,28.2-8.7c10.2,5.4,14.1,18,8.7,28.2C522.5,130.6,509.8,134.5,499.6,129.1z"/>
			<path class="st2" d="M285,177.9c1.6-2.3,3-4.8,4.1-7.5c1.1-2.7,1.8-5.5,2.3-8.2l-7.5-1.9c0.3-2.6,0.3-5.1-0.1-7.7l7.5-2
				c-0.9-5.6-3.2-11-6.6-15.6l-6.7,4c-1.5-2-3.4-3.8-5.4-5.4l3.9-6.7c-2.3-1.6-4.8-3-7.5-4.1c-2.7-1.1-5.5-1.8-8.2-2.3l-1.9,7.5
				c-2.6-0.3-5.1-0.3-7.7,0.1l-2-7.5c-5.6,0.9-11,3.2-15.6,6.6l4,6.7c-2,1.5-3.8,3.4-5.4,5.4l-6.7-3.9c-1.6,2.3-3,4.8-4.1,7.5
				c-1.1,2.7-1.8,5.5-2.3,8.2l7.5,1.9c-0.3,2.6-0.3,5.1,0.1,7.7l-7.5,2c0.9,5.6,3.2,11,6.6,15.6l6.7-4c1.5,2,3.4,3.8,5.4,5.4
				l-3.9,6.7c2.3,1.6,4.8,3,7.5,4.1c2.7,1.1,5.5,1.8,8.2,2.3l1.9-7.5c2.6,0.3,5.1,0.3,7.7-0.1l2,7.5c5.6-0.9,11-3.2,15.6-6.6l-4-6.7
				c2-1.5,3.8-3.4,5.4-5.4L285,177.9z M248.5,173.6c-9.3-3.8-13.8-14.4-10-23.7c3.8-9.3,14.4-13.8,23.7-10
				c9.3,3.8,13.8,14.4,10,23.7C268.4,172.9,257.8,177.4,248.5,173.6z M250.5,168.7c-6.6-2.7-9.8-10.2-7.1-16.9
				c2.7-6.6,10.2-9.8,16.9-7.1c6.6,2.7,9.8,10.2,7.1,16.9C264.6,168.2,257.1,171.4,250.5,168.7z"/>
			<path class="st2" d="M314.9,108.6c1.3-1.5,2.4-3.1,3.4-4.9c1-1.8,1.7-3.7,2.2-5.6l-5.1-1.8c0.4-1.8,0.6-3.6,0.5-5.3l5.4-0.8
				c-0.3-4-1.5-7.9-3.5-11.3l-4.9,2.3c-0.9-1.5-2.1-2.9-3.4-4.1l3.2-4.4c-1.5-1.3-3.1-2.4-4.9-3.4c-1.8-1-3.7-1.7-5.6-2.2l-1.8,5.1
				c-1.8-0.4-3.6-0.6-5.3-0.5l-0.8-5.4c-4,0.3-7.9,1.5-11.3,3.5l2.3,4.9c-1.5,0.9-2.9,2.1-4.1,3.4l-4.4-3.2
				c-1.3,1.5-2.4,3.1-3.4,4.9c-1,1.8-1.7,3.7-2.2,5.6l5.1,1.8c-0.4,1.8-0.6,3.6-0.5,5.3l-5.4,0.8c0.3,4,1.5,7.9,3.5,11.3l4.9-2.3
				c0.9,1.5,2.1,2.9,3.4,4.1l-3.2,4.4c1.5,1.3,3.1,2.4,4.9,3.4c1.8,1,3.7,1.7,5.6,2.2l1.8-5.1c1.8,0.4,3.6,0.6,5.3,0.5l0.8,5.4
				c4-0.3,7.9-1.5,11.3-3.5l-2.3-4.9c1.5-0.9,2.9-2.1,4.1-3.4L314.9,108.6z M291.5,99.8c-4.5-2.4-6.2-7.9-3.8-12.4
				c2.4-4.5,7.9-6.2,12.4-3.8c4.5,2.4,6.2,7.9,3.8,12.4C301.5,100.5,296,102.2,291.5,99.8z"/>
			<path class="st3" d="M194.1,188.3c0-0.7-0.1-1.4-0.2-2.1c-0.7-6.2-4.9-5.6-7.6-5.5c-2.6,0.2-5.9,0.3-7.2-2.6
				c-0.6-1.3-0.5-2.8-0.9-4.1c-0.8-3-3.5-4.8-6-4.8c-2.6,0-5,1.5-7.1,3.3c-1.1,0.9-2.3,2.1-3.6,1.7c-0.8-0.2-1.5-1-2-1.9
				c-3-4.9-3-12.1-6.3-16.7c-3.7-5.1-10.5-5.2-15.1-1.5s-7.3,10.3-8.5,17c-0.4,2.2-0.7,4.5-2.1,6c-1.9,2.1-4.8,1.4-7.4,1.1
				c-3-0.3-6.1,0.2-8.5,2.3c-2,1.8-3.2,4.9-3,7.8H194.1z"/>
			<path class="st3" d="M365.4,80.8h84.2c0,0-3.4-3.9-7.2-5.3c-4.8-1.7-6.8,3-9.8-3.1c-1.7-3.4-2.9-7.9-7.4-9.1
				c-7-1.8-8.8,4-12.1,2.4c-2.9-1.4-2.8-6.9-5.8-11.5c-2.9-4.5-9.9-7.2-14.7-4.9c-8.8,4.3-7.6,11.1-10.5,13.3
				c-2.8,2.2-9.3-5.6-16.6,2.8C360.4,71.3,365.4,80.8,365.4,80.8z"/>
			<path class="st4" d="M453.3,51.8c0,2-1.7,3.7-3.7,3.7c-2,0-3.7-1.7-3.7-3.7c0-2,1.7-3.7,3.7-3.7
				C451.6,48.2,453.3,49.8,453.3,51.8z"/>
			<path class="st4" d="M696.7,349.5c0,2-1.7,3.7-3.7,3.7c-2,0-3.7-1.7-3.7-3.7c0-2,1.7-3.7,3.7-3.7
				C695,345.8,696.7,347.5,696.7,349.5z"/>
			<path class="st4" d="M520.3,196.5c0,2-1.7,3.7-3.7,3.7c-2,0-3.7-1.7-3.7-3.7c0-2,1.7-3.7,3.7-3.7
				C518.6,192.8,520.3,194.4,520.3,196.5z"/>
			<path class="st4" d="M63.4,240.3c0,2-1.7,3.7-3.7,3.7c-2,0-3.7-1.7-3.7-3.7c0-2,1.7-3.7,3.7-3.7
				C61.8,236.6,63.4,238.2,63.4,240.3z"/>
			<path class="st4" d="M214.1,101.8c0,2-1.7,3.7-3.7,3.7c-2,0-3.7-1.7-3.7-3.7c0-2,1.7-3.7,3.7-3.7
				C212.5,98.1,214.1,99.8,214.1,101.8z"/>
			<path class="st4" d="M257.9,85c0,1.4-1.1,2.5-2.5,2.5s-2.5-1.1-2.5-2.5s1.1-2.5,2.5-2.5S257.9,83.6,257.9,85z"/>
			<path class="st4" d="M666.8,262.8c0,1.4-1.1,2.5-2.5,2.5c-1.4,0-2.5-1.1-2.5-2.5c0-1.4,1.1-2.5,2.5-2.5
				C665.7,260.3,666.8,261.4,666.8,262.8z"/>
			<circle class="st4" cx="484.4" cy="179.7" r="2.5"/>
			<path class="st4" d="M585.7,116.5c0,1.4-1.1,2.5-2.5,2.5c-1.4,0-2.5-1.1-2.5-2.5s1.1-2.5,2.5-2.5
				C584.5,114,585.7,115.1,585.7,116.5z"/>
			<path class="st4" d="M580.3,300.4c0,1.4-1.1,2.5-2.5,2.5c-1.4,0-2.5-1.1-2.5-2.5c0-1.4,1.1-2.5,2.5-2.5
				C579.2,297.9,580.3,299,580.3,300.4z"/>
			<path class="st4" d="M190.6,324.5c0,1.4-1.1,2.5-2.5,2.5s-2.5-1.1-2.5-2.5c0-1.4,1.1-2.5,2.5-2.5S190.6,323.1,190.6,324.5z"/>
			<path class="st4" d="M198.1,209.7c0,1.4-1.1,2.5-2.5,2.5s-2.5-1.1-2.5-2.5c0-1.4,1.1-2.5,2.5-2.5S198.1,208.4,198.1,209.7z"/>
			<path class="st2" d="M682.3,226.8h-3.4c-0.6,0-1.1-0.5-1.1-1.1v-3.4c0-0.6,0.5-1.1,1.1-1.1h3.4c0.6,0,1.1,0.5,1.1,1.1v3.4
				C683.3,226.4,682.9,226.8,682.3,226.8z"/>
			<path class="st2" d="M165.1,342.4h-3.4c-0.6,0-1.1-0.5-1.1-1.1V338c0-0.6,0.5-1.1,1.1-1.1h3.4c0.6,0,1.1,0.5,1.1,1.1v3.4
				C166.2,341.9,165.7,342.4,165.1,342.4z"/>
			<path class="st2" d="M159.3,137.9h-3.4c-0.6,0-1.1-0.5-1.1-1.1v-3.4c0-0.6,0.5-1.1,1.1-1.1h3.4c0.6,0,1.1,0.5,1.1,1.1v3.4
				C160.4,137.4,159.9,137.9,159.3,137.9z"/>
			<path class="st2" d="M590.9,98.2h-6.5c-1.2,0-2.1-0.9-2.1-2.1v-6.5c0-1.2,0.9-2.1,2.1-2.1h6.5c1.2,0,2.1,0.9,2.1,2.1v6.5
				C593,97.2,592.1,98.2,590.9,98.2z"/>
			<path class="st2" d="M530.7,259.2h-3.4c-0.6,0-1.1-0.5-1.1-1.1v-3.4c0-0.6,0.5-1.1,1.1-1.1h3.4c0.6,0,1.1,0.5,1.1,1.1v3.4
				C531.8,258.7,531.3,259.2,530.7,259.2z"/>
			<path class="st3" d="M454.2,219.3c0-0.5,0.1-1,0.1-1.5c0.6-4.5,4.1-4,6.2-3.9c2.2,0.1,4.9,0.2,5.9-1.9c0.5-0.9,0.4-2,0.7-3
				c0.7-2.2,2.9-3.5,5-3.5c2.1,0,4.1,1,5.8,2.3c5.6,4.2,7.2-6.9,9.8-10.1c3-3.7,8.6-5.7,12.4-3.1c3.8,2.7,6,7.4,7,12.2
				c0.3,1.6,0.4,3.5,1.7,4.3c3.7,2.5,8.4-2.4,12.9,1.4c1.6,1.3,1.9,4.5,1.7,6.6H454.2z"/>
		</g>
		<g>
			<g>
				<path class="st0" d="M178.7,447.9c-12.5-18.9-38.8-66.7-16-83.1c12.5-9,29.1-0.8,37.1,19.1c7.6,18.9,10.5,41.3,13.7,63.8"/>
				<g>
					<path class="st5" d="M179,447.8c-6-9.2-11.4-18.8-15.9-28.9c-4.8-10.9-9.3-23-9-35c0.3-10.8,6.9-21.9,18.8-22.3
						c15-0.6,24,15.1,28.3,27.3c6.7,19,9.1,39.2,11.9,59c0.1,0.5,0.9,0.3,0.8-0.2c-2.7-19.3-5.1-38.8-11.3-57.3
						c-4.1-12.3-11.8-27.1-26.1-29.3c-10.6-1.6-19.9,6.2-22.3,16.3c-2.7,11.5,1.1,24.2,5.3,34.9c4.9,12.6,11.5,24.7,19,36
						C178.7,448.4,179.2,448.1,179,447.8L179,447.8z"/>
				</g>
			</g>
			<line class="st3" x1="169.1" y1="361.9" x2="198.7" y2="448"/>
			<g>
				<path class="st0" d="M128.4,447.9c-10.8-14-34.5-49.3-14.8-61.5c10.8-6.7,24.1-0.6,31,14.1c6.6,14,9.1,30.5,11.8,47.2"/>
				<g>
					<path class="st5" d="M128.7,447.8c-5-6.6-9.7-13.5-13.7-20.8c-4.2-7.7-8.4-16.5-8.6-25.5c-0.2-8.9,5.8-16.5,15-17.3
						c11.6-1,19.7,9.4,23.8,18.9c6.1,14.1,8.2,29.6,10.7,44.7c0.1,0.5,0.9,0.3,0.8-0.2c-2.4-14.8-4.6-30-10.4-44
						c-3.9-9.4-11-19.3-22.1-20.2c-8.2-0.7-16.3,4.7-18.2,12.8c-1.9,8.6,1.7,17.9,5.4,25.6c4.5,9.4,10.3,18.2,16.7,26.4
						C128.4,448.4,128.9,448,128.7,447.8L128.7,447.8z"/>
				</g>
			</g>
			<line class="st3" x1="119.2" y1="384.3" x2="144.7" y2="448"/>
			<path class="st3" d="M254.9,447.7c-29.6-53.8-48.8-107.1-24.9-132.4c23.7-25.1,48.5,4.6,54.5,31c7.4,32.3,8.5,67.2,8.3,101.4"/>
			<line class="st4" x1="238.8" y1="308.8" x2="274.4" y2="447.6"/>
			<g>
				<path class="st0" d="M210.4,447.9c-11.8-28.4-38.3-86-19.6-103.7c11.9-11.4,33.5,2.6,44.6,27.4c10.5,23.6,13.7,47.9,20,76"/>
				<g>
					<path class="st5" d="M210.7,447.8c-5.6-13.7-11.5-27.2-16.4-41.1c-4.9-14-9.9-29.1-9.6-44.1c0.1-5.5,1.1-11.4,4.4-15.9
						c3.8-5.2,10-7.1,16.2-5.5c7.3,1.9,13.4,7.1,18.3,12.6c6.6,7.5,11,16.5,14.6,25.8c8.3,21.9,11.7,45.4,16.8,68.2
						c0.1,0.5,0.9,0.3,0.8-0.2c-4.9-21.7-8.1-44-15.6-65c-5.6-15.8-14.6-33.8-30.9-40.8c-5.3-2.3-11.4-2.8-16.4,0.4
						c-4.5,2.9-7,7.8-8.1,12.9c-1.4,6.3-0.9,13,0,19.3c1.2,8,3.3,15.9,5.7,23.6c5.4,17.1,12.6,33.6,19.5,50.1
						C210.3,448.3,210.9,448.2,210.7,447.8L210.7,447.8z"/>
				</g>
			</g>
			<g>
				<path class="st0" d="M440.1,447.7c-10-114.4,14.3-156.3,40.9-158.1c12.6-0.9,49.5,6.4,4.9,158.1"/>
				<g>
					<path class="st5" d="M440.3,447.7c-2.5-37.7-5-76.8,4.7-113.8c4.2-16,12.1-36.7,29.4-42.6c6.8-2.3,14.5-1.9,20.3,2.7
						c10.2,8.1,11.8,24,12.2,36c0.4,13.5-1,27-3.1,40.3c-3.1,20-7.8,39.8-13.1,59.3c-1.6,6-3.3,12-5,18c-0.1,0.4,0.5,0.5,0.6,0.2
						c6.8-21.7,12.3-44,16.4-66.3c2.7-14.7,4.8-29.6,5-44.6c0.1-9.1-0.4-18.5-2.9-27.3c-1.5-5.2-3.8-10.3-7.6-14.3
						c-4.9-5-11.7-6.9-18.6-5.8c-16.7,2.6-26.1,19.7-31.3,34.2c-4.8,13.6-7.1,28-8.5,42.3c-2,20.9-1.7,42.1-0.5,63
						c0.4,6.3,0.8,12.5,1.5,18.8C440,448,440.3,448,440.3,447.7L440.3,447.7z"/>
				</g>
			</g>
			<line class="st3" x1="486.2" y1="289.9" x2="462.7" y2="447.7"/>
			<g>
				<path class="st0" d="M518.7,447.7c8.1-68,35.6-107.2,60.4-96.6c20.3,8.7,9.8,46.6-21.8,96.5"/>
				<g>
					<path class="st5" d="M518.9,447.8c3.1-20,6.6-39.9,14.4-58.7c5.1-12.5,12.1-26,23.3-34.1c7.6-5.5,18.3-7.5,26.2-1.2
						c9.1,7.4,6.6,22,4.1,31.8c-5.8,22.3-18.1,42.4-29.8,62c-0.2,0.3,0.3,0.6,0.5,0.3c6.8-10.2,12.8-21,18.3-32
						c4.2-8.6,8-17.4,10.8-26.6c3-10.2,6.4-24.8-1.1-33.9c-6-7.3-16.9-7.8-24.9-3.8c-11.4,5.8-19,18-24.4,29.1
						c-4.6,9.4-8,19.4-10.7,29.5c-3.3,12.2-5.8,24.9-7,37.5C518.5,448,518.9,448,518.9,447.8L518.9,447.8z"/>
				</g>
			</g>
			<line class="st3" x1="579.1" y1="351.2" x2="538.6" y2="447.7"/>
			<line class="st3" x1="197.3" y1="340.6" x2="233.6" y2="448"/>
			<g>
				<path class="st0" d="M521.8,447.9c16-34,48.3-111.5,24-139c-13.4-15.1-37.8,3.4-50.8,36.7c-12.3,31.6-21.5,64.2-29.2,101.8"/>
				<g>
					<path class="st5" d="M522,448c8.4-17.6,15.9-35.8,22-54.3c6.3-19.1,12-39.9,10.7-60.2c-0.8-12.5-6.7-32.7-23-30.1
						c-8.8,1.4-16.2,8.3-21.7,15c-8,9.7-13.2,21.1-17.6,32.8c-11.8,31.2-20.4,63.5-27,96.2c-0.1,0.5,0.7,0.8,0.8,0.2
						c5.7-27.9,12.8-55.6,22.1-82.6c4.3-12.6,8.7-25.4,15.7-36.7c5.3-8.6,12.2-17.3,21.4-21.9c7.1-3.6,14.9-3.1,20.4,3.1
						c5.1,5.9,7.2,13.8,8,21.4c2,19.3-3.2,39.3-8.8,57.6c-6.3,20.3-14.5,40.1-23.5,59.3C521.3,448.1,521.9,448.4,522,448L522,448z"
						/>
				</g>
			</g>
			<line class="st3" x1="538.6" y1="304.1" x2="495.7" y2="448"/>
			<g>
				<path class="st0" d="M550.1,447.7c21.1-42.8,39.5-54.1,56.7-50.7c13.4,2.7,15.5,22.4-12.8,50.7"/>
				<g>
					<path class="st5" d="M550.2,447.8c6.5-11.7,12.5-23.5,21.2-33.8c5.4-6.3,11.8-12.4,19.7-15.4c5.5-2.1,12.7-2.9,18.3-0.5
						c6.2,2.7,7.2,9.8,6,15.8c-2.7,13.3-12.8,23.9-21.6,33.5c-0.3,0.3,0.1,0.7,0.4,0.4c9-8.3,18-19.4,21.4-31.4
						c1.7-5.9,1.9-13.3-3.3-17.5c-4.5-3.6-11.8-3.5-17.2-2.3c-7.9,1.7-14.6,6.8-20.1,12.4c-4.5,4.6-8.3,9.7-11.8,15
						c-4.9,7.4-9.6,15.3-13.1,23.5C549.8,447.9,550.1,448.1,550.2,447.8L550.2,447.8z"/>
				</g>
			</g>
			<line class="st3" x1="605.1" y1="397.3" x2="572.8" y2="447.7"/>
		</g>
		<g>
			<g>
				<path class="st6" d="M287.2,447.5c-5.1,0-9.3-4.2-9.3-9.3V107.7c0-5.1,4.2-9.3,9.3-9.3h175.5c5.1,0,9.3,4.2,9.3,9.3v330.5
					c0,5.1-4.2,9.3-9.3,9.3H287.2z"/>
				<path class="st6" d="M462.8,98.9c4.9,0,8.8,4,8.8,8.8v330.5c0,4.9-4,8.8-8.8,8.8H287.2c-4.9,0-8.8-4-8.8-8.8V107.7
					c0-4.9,4-8.8,8.8-8.8H462.8 M462.8,97.9H287.2c-5.4,0-9.8,4.4-9.8,9.8v330.5c0,5.4,4.4,9.8,9.8,9.8h175.5c5.4,0,9.8-4.4,9.8-9.8
					V107.7C472.6,102.3,468.2,97.9,462.8,97.9L462.8,97.9z"/>
			</g>
			<g>
				<path class="st7" d="M383.9,432c0,4.9-4,8.9-8.9,8.9c-4.9,0-8.9-4-8.9-8.9c0-4.9,4-8.9,8.9-8.9C379.9,423,383.9,427,383.9,432z"
					/>
			</g>
			<g>
				<defs>
					<path id="SVGID_1_" d="M462.8,448H287.2c-5.4,0-9.8-4.4-9.8-9.8V107.7c0-5.4,4.4-9.8,9.8-9.8h175.5c5.4,0,9.8,4.4,9.8,9.8
						v330.5C472.6,443.6,468.2,448,462.8,448z"/>
				</defs>
				<clipPath id="SVGID_2_">
					<use xlink:href="#SVGID_1_"  style="overflow:visible;"/>
				</clipPath>
				<g class="st8">
					<linearGradient id="SVGID_3_" gradientUnits="userSpaceOnUse" x1="223.0817" y1="404.7483" x2="515.7789" y2="112.051">
						<stop  offset="0.2704" style="stop-color:#FFFFFF;stop-opacity:0.1"/>
						<stop  offset="1" style="stop-color:#FFFFFF;stop-opacity:0.3"/>
					</linearGradient>
					<polygon class="st9" points="421.2,60 275.2,456.8 317.6,456.8 463.7,60 					"/>
					<linearGradient id="SVGID_4_" gradientUnits="userSpaceOnUse" x1="272.5466" y1="398.635" x2="553.0172" y2="118.1644">
						<stop  offset="0.2704" style="stop-color:#FFFFFF;stop-opacity:0.1"/>
						<stop  offset="1" style="stop-color:#FFFFFF;stop-opacity:0.3"/>
					</linearGradient>
					<polygon class="st10" points="476.8,60 330.8,456.8 348.8,456.8 494.8,60 					"/>
				</g>
			</g>
			<rect x="279" y="130.5" class="st0" width="192.1" height="284.9"/>
			<g>
				<path class="st7" d="M364,112.4h27c0.6,0,1.1,0.5,1.1,1.1l0,0c0,0.6-0.5,1.1-1.1,1.1h-27c-0.6,0-1.1-0.5-1.1-1.1l0,0
					C362.9,112.9,363.4,112.4,364,112.4z"/>
				<circle class="st7" cx="358" cy="113.5" r="1.1"/>
			</g>
			<g>
				<g>
					<rect x="292.1" y="240.8" class="st11" width="82.9" height="83.8"/>
					<g>
						
							<ellipse transform="matrix(0.1593 -0.9872 0.9872 0.1593 13.182 556.8387)" class="st12" cx="333.5" cy="270.7" rx="17.2" ry="17.2"/>
						<ellipse class="st12" cx="333.5" cy="270.7" rx="11.8" ry="17.2"/>
						<ellipse class="st12" cx="333.5" cy="270.7" rx="4.6" ry="17.2"/>
						<line class="st12" x1="316.4" y1="270.7" x2="350.7" y2="270.7"/>
						<path class="st12" d="M318.2,278.3c3.3-1.1,8.9-1.8,15.4-1.8c6.4,0,12.1,0.7,15.4,1.8"/>
						<path class="st12" d="M323.2,284.3c3-1.1,6.5-1.8,10.4-1.8c3.8,0,7.3,0.6,10.3,1.7"/>
						<path class="st12" d="M318.2,263.1c3.3,1.1,8.9,1.8,15.4,1.8c6.4,0,12.1-0.7,15.4-1.8"/>
						<path class="st12" d="M323.2,257.1c3,1.1,6.5,1.8,10.4,1.8c3.8,0,7.3-0.6,10.3-1.7"/>
					</g>
					<g>
						
							<rect x="299.1" y="305.2" transform="matrix(-1 -1.224647e-16 1.224647e-16 -1 667.0956 614.8291)" class="st13" width="68.8" height="4.4"/>
						
							<rect x="326.8" y="297" transform="matrix(-1 -1.224647e-16 1.224647e-16 -1 694.779 598.3505)" class="st13" width="41.1" height="4.4"/>
						<rect x="299.1" y="297" class="st13" width="23" height="4.4"/>
						
							<rect x="299.1" y="313.4" transform="matrix(-1 -1.224647e-16 1.224647e-16 -1 667.0956 631.3079)" class="st13" width="68.8" height="4.4"/>
					</g>
				</g>
				<g>
					<rect x="374.9" y="240.8" class="st14" width="82.9" height="83.8"/>
					<g>
						
							<rect x="382" y="255.8" transform="matrix(-1 -1.224647e-16 1.224647e-16 -1 832.7321 515.9571)" class="st2" width="68.8" height="4.4"/>
						
							<rect x="382" y="264" transform="matrix(-1 -1.224647e-16 1.224647e-16 -1 832.7321 532.4357)" class="st2" width="68.8" height="4.4"/>
						
							<rect x="382" y="272.2" transform="matrix(-1 -1.224647e-16 1.224647e-16 -1 785.3563 548.9144)" class="st2" width="21.4" height="4.4"/>
						
							<rect x="409.1" y="272.2" transform="matrix(-1 -1.224647e-16 1.224647e-16 -1 859.7919 548.9144)" class="st2" width="41.6" height="4.4"/>
						
							<rect x="382" y="280.5" transform="matrix(-1 -1.224647e-16 1.224647e-16 -1 832.7321 565.393)" class="st2" width="68.8" height="4.4"/>
						
							<rect x="382" y="288.7" transform="matrix(-1 -1.224647e-16 1.224647e-16 -1 832.7321 581.8719)" class="st2" width="68.8" height="4.4"/>
						
							<rect x="382" y="297" transform="matrix(-1 -1.224647e-16 1.224647e-16 -1 832.7321 598.3505)" class="st2" width="68.8" height="4.4"/>
						
							<rect x="430.9" y="305.2" transform="matrix(-1 -1.224647e-16 1.224647e-16 -1 881.6655 614.8291)" class="st2" width="19.9" height="4.4"/>
						
							<rect x="382" y="305.2" transform="matrix(-1 -1.224647e-16 1.224647e-16 -1 808.1227 614.8291)" class="st2" width="44.2" height="4.4"/>
						
							<rect x="382" y="313.4" transform="matrix(-1 -1.224647e-16 1.224647e-16 -1 832.7321 631.3079)" class="st2" width="68.8" height="4.4"/>
						
							<rect x="432.5" y="247.5" transform="matrix(-1 -1.224647e-16 1.224647e-16 -1 883.3098 499.4783)" class="st2" width="18.2" height="4.4"/>
						<rect x="382" y="247.5" class="st2" width="45.9" height="4.4"/>
					</g>
				</g>
				<g>
					<rect x="292.1" y="324.6" class="st14" width="82.9" height="83.8"/>
					<g>
						<rect x="299.1" y="389" class="st2" width="68.8" height="4.4"/>
						<rect x="299.1" y="380.8" class="st2" width="68.8" height="4.4"/>
						<rect x="350.3" y="372.5" class="st2" width="17.7" height="4.4"/>
						<rect x="299.2" y="372.5" class="st2" width="45.3" height="4.4"/>
						<rect x="299.1" y="364.3" class="st2" width="68.8" height="4.4"/>
						<rect x="299.1" y="356" class="st2" width="68.8" height="4.4"/>
						<rect x="299.1" y="347.8" class="st2" width="68.8" height="4.4"/>
						<rect x="299.1" y="339.6" class="st2" width="32" height="4.4"/>
						<rect x="335.9" y="339.6" class="st2" width="32.1" height="4.4"/>
						<rect x="299.1" y="331.3" class="st2" width="68.8" height="4.4"/>
						<rect x="299.1" y="397.2" class="st2" width="32.1" height="4.4"/>
						
							<rect x="335.9" y="397.2" transform="matrix(-1 -1.224647e-16 1.224647e-16 -1 703.8315 798.9047)" class="st2" width="32.1" height="4.4"/>
					</g>
				</g>
				<g>
					<rect x="374.9" y="324.6" class="st11" width="82.9" height="83.8"/>
					<g>
						<g>
							<polygon class="st15" points="433.2,382.3 400,381.9 396.2,358 436.4,357.9 							"/>
							<polygon class="st15" points="436.4,357.9 396.2,358 416.3,341.4 							"/>
							
								<rect x="402.4" y="355.6" transform="matrix(1 -1.760907e-03 1.760907e-03 1 -0.6459 0.7332)" class="st0" width="27.4" height="23.2"/>
							<polygon class="st13" points="396.2,358 396.3,384.1 416.4,371.9 							"/>
							<polygon class="st13" points="436.4,357.9 436.5,384 416.4,371.9 							"/>
							<polygon class="st13" points="436.5,384 396.3,384.1 416.4,367.5 							"/>
							<polyline class="st16" points="396.3,384.1 416.4,367.5 436.5,384 							"/>
							<line class="st16" x1="419.2" y1="369.9" x2="436.4" y2="357.9"/>
						</g>
						<line class="st16" x1="413.5" y1="369.9" x2="396.2" y2="358"/>
					</g>
					
						<rect x="400.3" y="394.1" transform="matrix(-1 -1.224647e-16 1.224647e-16 -1 832.7321 792.6044)" class="st13" width="32.1" height="4.4"/>
				</g>
				<g>
					<rect x="292.1" y="149.8" class="st11" width="165.8" height="83.6"/>
					<g>
						
							<rect x="372.7" y="161.8" transform="matrix(-1 -1.224647e-16 1.224647e-16 -1 823.4302 329.4465)" class="st13" width="78.1" height="5.8"/>
						
							<rect x="372.7" y="172.6" transform="matrix(-1 -1.224647e-16 1.224647e-16 -1 823.4302 350.9529)" class="st13" width="78.1" height="5.8"/>
						
							<rect x="372.7" y="183.3" transform="matrix(-1 -1.224647e-16 1.224647e-16 -1 823.4302 372.4596)" class="st13" width="78.1" height="5.8"/>
						
							<rect x="372.7" y="194.1" transform="matrix(-1 -1.224647e-16 1.224647e-16 -1 823.4302 393.966)" class="st13" width="78.1" height="5.8"/>
						
							<rect x="372.7" y="215.6" transform="matrix(-1 -1.224647e-16 1.224647e-16 -1 823.4302 436.9792)" class="st13" width="78.1" height="5.8"/>
						
							<rect x="404.1" y="204.8" transform="matrix(-1 -1.224647e-16 1.224647e-16 -1 854.8566 415.4726)" class="st13" width="46.7" height="5.8"/>
						<rect x="372.7" y="204.8" class="st13" width="26.1" height="5.8"/>
					</g>
					<g>
						<rect x="301.6" y="162.1" class="st13" width="59.1" height="59.1"/>
						<polygon class="st0" points="336.6,180.5 354.6,211.3 318.6,211.3 						"/>
						<polygon class="st0" points="318.4,190.6 322.2,198 315.4,211.3 307.7,211.3 						"/>
						<path class="st0" d="M309.2,178.8c0,1.8,1.5,3.3,3.3,3.3c1.8,0,3.3-1.5,3.3-3.3c0-1.8-1.5-3.3-3.3-3.3
							C310.7,175.4,309.2,176.9,309.2,178.8z"/>
					</g>
				</g>
				<path class="st11" d="M328.2,143h93.5c1.5,0,2.7-1.2,2.7-2.7l0,0c0-1.5-1.2-2.7-2.7-2.7h-93.5c-1.5,0-2.7,1.2-2.7,2.7l0,0
					C325.6,141.8,326.8,143,328.2,143z"/>
				<line class="st12" x1="375" y1="240.8" x2="375" y2="408.4"/>
				<line class="st12" x1="292.1" y1="324.6" x2="457.9" y2="324.6"/>
			</g>
		</g>
		<line class="st17" x1="96.2" y1="448" x2="653.8" y2="448"/>
		<g>
			<g>
				<g>
					<g>
						<path class="st18" d="M623.1,420.2l1.7,28.5l-0.9,9l-34-0.2c-0.9,0-1.6-0.7-1.5-1.6l0,0c0-0.6,0.4-1.2,1-1.4l15.2-7l-3.4-29.7
							"/>
						<path class="st19" d="M586.7,457.1c0.4-1.1,1-2.4,1.7-2.7l16.1-6.9c8.9,3.6,20.4,0.8,20.4,0.8l0.9,12.1c0,0.4-0.3,0.7-0.7,0.7
							l-38-0.2C586.2,461,586.7,457.2,586.7,457.1z"/>
						<path class="st20" d="M601,448.2c0.9,1.2,1.7,2.5,2.3,3.8"/>
						<path class="st20" d="M599,449.4c0.9,1.3,1.3,2,1.9,3.2"/>
						<path class="st20" d="M597.3,450.3c0.6,0.9,1.3,2,1.7,3"/>
					</g>
					<line class="st20" x1="625.6" y1="458.6" x2="586.6" y2="458.4"/>
					<path class="st20" d="M625.2,452.8c0,0-9,0.1-9.8,5.7"/>
					<path class="st20" d="M591.7,453c0,0,2.6,3.7,3.1,5.4"/>
				</g>
				<path class="st21" d="M596.3,310.5c0,0-4.9,40.2-3,69.3c1.9,29.2,4.6,63,4.6,63h29.6c0,0-3.8-50.1-3.4-73.5
					c0.5-26,8.4-58.8,8.4-58.8"/>
				<path class="st22" d="M621.4,442.9c0,0-3.8-50.1-3.4-73.5c0.5-26,8.4-58.8,8.4-58.8"/>
				<g>
					<g>
						<path class="st18" d="M661.9,382l27.4,8.8l8.3,3.6l-10.5,32.4c-0.3,0.8-1.1,1.3-2,1l0,0c-0.6-0.2-1-0.8-1.1-1.4l-2.1-16.6
							l-28.5-9.3"/>
						<path class="st19" d="M685.9,429.6c-1-0.7-2-1.7-2-2.4l-1.7-17.4c6.1-7.4,7-19.1,7-19.1l11.8,2.8c0.4,0.1,0.6,0.5,0.5,0.9
							l-11.7,36.2C689.4,431.3,685.9,429.6,685.9,429.6z"/>
						<path class="st20" d="M681.7,413.3c1.4-0.5,2.8-0.8,4.3-1"/>
						<path class="st20" d="M682.2,415.6c1.5-0.5,2.3-0.6,3.7-0.8"/>
						<path class="st20" d="M682.6,417.5c1-0.3,2.3-0.6,3.4-0.8"/>
					</g>
					<line class="st20" x1="699" y1="393" x2="687" y2="430.1"/>
					<path class="st20" d="M693.4,391.6c0,0-2.7,8.6,2.5,11.1"/>
					<path class="st20" d="M683.5,423.6c0,0,4.3-1.4,6.1-1.3"/>
				</g>
				<path class="st21" d="M644.5,311.8c0,0,2.7,11.4,2.7,16.3c0,3.6-1.4,6-2.2,8.7c-0.3,1.1-0.5,2.3-0.6,3.4c-0.2,5.3-0.5,20,2.8,27
					c4,8.6,37.7,20,37.7,20l-8.5,25.7c0,0-51.5-12.9-57.9-28.7c-9-22-6.4-72.5-6.4-72.5"/>
				<path class="st22" d="M624.6,391.6c-3-2.4-5.2-4.8-6.2-7.4c-9-22-6.4-72.5-6.4-72.5"/>
				<path class="st22" d="M640.1,310.8c0,0,3,14.4,3,19.3c0,3.7-1.5,6.2-2.2,8.8c-0.3,1-0.5,2.1-0.6,3.2c-0.3,5.2-0.9,20.2,2.8,27.1
					c5.1,9.5,40.3,22.1,40.3,22.1"/>
				<path class="st22" d="M607.8,314.6c0,0-0.5,10.4,1,11.6c1.5,1.2,2.9,2.1,2.9,2.1"/>
				<line class="st22" x1="680.6" y1="385.8" x2="671.2" y2="411.6"/>
				<line class="st22" x1="597.5" y1="437.8" x2="627.1" y2="437.8"/>
				<path class="st22" d="M632,312.6c0,0,1.8,6.6,10.1,8.6"/>
				<path class="st22" d="M595.4,320c0,0,7.4-2.2,9.7-7.4"/>
			</g>
			<g>
				<path class="st23" d="M613.3,232.5l-1.3,9.3c0,0-0.1,2.6,4.9,4.4c6.1,2.2,9.8-2.5,9.8-2.5l-0.4-9.4"/>
				<path class="st23" d="M612.5,220.1c0,0-6.4,10.8-2,15.1c4.1,3.9,13,1.5,13.8,0.1c0.8-1.4,5.9-13.4,3.1-15.1
					C622.5,217.3,615.3,215.5,612.5,220.1z"/>
				<path class="st24" d="M612.6,237.2c0,0,4.4,1.4,8.4-0.4"/>
				<g>
					<path class="st25" d="M611.4,213.1c0.8-6.4,8.6-1.6,11.7,1.3c0.9,0.9,6.5,2.5,7.3,3.4c0.9,0.9,1.6,2.1,1.9,3.3
						c0.2,1.1,0,2.3-0.2,3.3c-0.5,2-1.3,3.8-2,5.7c-0.8,2-2.3,6.1-5.3,5.7c-0.6-0.1-1.2-0.2-1.5-0.6c-0.4-0.4-0.4-1-0.3-1.6
						c0.1-0.9,0.4-1.8,0.8-2.6c-0.6,0.2-1.2,0.5-1.8,0.3c-0.2-0.1-0.3-0.3-0.4-0.4c-0.4-0.6,0.1-4.7,2-6.4c-2.8-1.3-4.9-1.4-7.8-2.6
						c-2.3-1-3.3-2.1-4.1-3.2C610.6,217.2,611.2,215.1,611.4,213.1z"/>
				</g>
				<g>
					<path class="st23" d="M623.1,230.7c0.7-1,1.8-2.1,2.8-1.1c0.4,0.4,0.5,1,0.5,1.6c0.1,1.9-1.8,4.4-3.6,3.7
						c-0.8-0.3-1.1-1.5-1.2-2.4"/>
				</g>
				<path class="st26" d="M613.9,224.9c0,0-2.8,2.7-2.8,3.7c0,0.9,2.1,1.5,2.1,1.5"/>
				<path class="st0" d="M610.1,230.4l5,1.9c0,0-1.2,3-4.2,1.6C608.8,232.9,610.1,230.4,610.1,230.4z"/>
				<g>
					<g>
						<path class="st27" d="M611.8,223.4c-0.2,0.2-0.3,0.4-0.4,0.7c-0.2,0.4,0.4,0.8,0.7,0.4c0.1-0.3,0.3-0.5,0.4-0.8
							C612.6,223.2,612,223.1,611.8,223.4L611.8,223.4z"/>
					</g>
				</g>
				<path class="st28" d="M614,222.4c0,0-0.6-1.4-2.1-0.7"/>
				<g>
					<g>
						<path class="st27" d="M618.1,226.4c-0.1,0.2-0.3,0.5-0.4,0.7c-0.2,0.5,0.5,0.9,0.7,0.4c0.1-0.3,0.2-0.5,0.3-0.8
							C618.8,226.3,618.3,226,618.1,226.4L618.1,226.4z"/>
					</g>
				</g>
				<path class="st28" d="M618.3,224.1c0,0,1.5-0.2,2.6,1.8"/>
			</g>
			<g>
				<g>
					<g>
						<path class="st18" d="M591.6,191.7c-0.4-5.4,0.3-20.7-0.6-21.1c-0.9-0.4-1.3,4.8-2.1,4.3c-0.7-0.5-0.7-8.5-1.7-8.6
							c-1.4-0.2-1.1,8-1.1,8s-0.9-9-2.2-8.8c-0.9,0.1-0.6,7-0.8,9.7c-0.1-2.9-1-8.3-1.9-8.1c-0.9,0.2-0.8,5.6-0.8,9.2
							c-0.2-2.3-0.6-7.2-1.5-7.1c-0.9,0.1-1.1,12.9-1.2,23.7"/>
					</g>
					<path class="st18" d="M590.3,245.9c0,0-5.8-12.2-9.4-26.3c-3.6-14.2-3-32.6-3-32.6l13.6,2.3c0,0,0.6,25.7,16.2,51.3"/>
					<path class="st29" d="M580.7,176.8c1.1,1.7,2.6,3.7,2.5,7.1"/>
					<path class="st29" d="M588.8,176.2c-1.3,1.2-2.7,4.3-2,5.9"/>
				</g>
				<path class="st5" d="M635.5,189.1c2-2.3,3.8-4.9,5.2-7.8c1.5-2.9,2.5-5.8,3.3-8.8l-8.1-2.7c0.6-2.8,0.8-5.6,0.7-8.4l8.4-1.4
					c-0.5-6.3-2.5-12.4-5.8-17.7l-7.7,3.8c-1.5-2.3-3.3-4.5-5.5-6.4l4.9-7c-2.3-2-4.9-3.8-7.8-5.2c-2.9-1.5-5.8-2.5-8.8-3.3
					l-2.7,8.1c-2.8-0.6-5.6-0.8-8.4-0.7l-1.4-8.4c-6.3,0.5-12.4,2.5-17.7,5.8l3.8,7.7c-2.3,1.5-4.5,3.3-6.4,5.5l-7-4.9
					c-2,2.3-3.8,4.9-5.2,7.8c-1.5,2.9-2.5,5.8-3.3,8.8l8.1,2.7c-0.6,2.8-0.8,5.6-0.7,8.4l-8.4,1.4c0.5,6.3,2.5,12.4,5.8,17.7
					l7.7-3.8c1.5,2.3,3.3,4.5,5.5,6.4l-4.9,7c2.3,2,4.9,3.8,7.8,5.2c2.9,1.5,5.8,2.5,8.8,3.3l2.7-8.1c2.8,0.6,5.6,0.8,8.4,0.7
					l1.4,8.4c6.3-0.5,12.4-2.5,17.7-5.8l-3.8-7.7c2.3-1.5,4.5-3.3,6.4-5.5L635.5,189.1z M598.1,176.8c-7.6-3.9-10.6-13.1-6.7-20.7
					c3.9-7.6,13.1-10.6,20.7-6.7c7.6,3.9,10.6,13.1,6.7,20.7C614.9,177.7,605.6,180.7,598.1,176.8z"/>
				<path class="st19" d="M612.1,240.5c-4.1,0-10.4-13-10.4-13l-16.3,12.1c0,0,5.2,16.2,14,26.5"/>
				<line class="st20" x1="603.1" y1="230.1" x2="586.5" y2="242.6"/>
				<g>
					<g>
						<path class="st18" d="M654.3,185.1c-0.9-6-3.1-20-4.1-20.2c-1-0.2-1.4,3.1-1,4.5c-0.6-2.5-2.4-8.1-3.5-8.1
							c-1.4,0.1,0.4,8.1,0.4,8.1s-2.4-8.7-3.7-8.3c-0.9,0.3,0.7,7,0.9,9.6c-0.7-2.8-2.4-8-3.3-7.7c-0.9,0.3,0.2,5.6,0.8,9.2
							c-0.5-2.2-1.9-7-2.7-6.7c-0.8,0.3,1.4,11.3,2.7,22.2"/>
					</g>
					<path class="st18" d="M651.5,241.1c0,0,3.6-13,4.7-27.6c1.1-14.6-2.7-32.6-2.7-32.6l-13,4.6c0,0,3.8,25.4-7,53.3"/>
				</g>
				<path class="st19" d="M612.1,240.5c0,0,0.8,2.3,5.3,2.5c5.8,0.3,9-2.5,9-2.5s17.3,2.3,18.7,21.1c1.6,21.7,2,52.2,2,52.2h-53.8
					c0,0,0.4-34.8,1.5-51.5C595.9,246.5,612.1,240.5,612.1,240.5z"/>
				<path class="st19" d="M645,264c6.5-16.9,8.8-29.8,8.8-29.8l-17.3-8.4c0,0-4.1,11.5-10.1,14.6"/>
				<line class="st20" x1="635.2" y1="229.2" x2="653.1" y2="237.8"/>
				<line class="st20" x1="593.3" y1="310.9" x2="647.1" y2="310.9"/>
				<path class="st20" d="M645.5,262.8c0,0-2.2,4.7-2.4,7"/>
				<path class="st20" d="M598.8,250.4c0,0-3.3,5.5-4,12"/>
				<path class="st20" d="M610.1,239.6c0,0,0.9,6.3,7.9,6.3c8.6,0,10.3-6.3,10.3-6.3"/>
				<g>
					<path class="st30" d="M649.1,169.4c0-0.1,0.1,0.1,0.1,0.2l0.1,0.2l0.2,0.5c0.1,0.3,0.3,0.7,0.4,1c0.2,0.7,0.4,1.4,0.4,2.1
						c-0.2-0.3-0.4-0.6-0.5-0.9c-0.2-0.3-0.3-0.7-0.4-1c-0.1-0.3-0.2-0.7-0.3-1l-0.1-0.5l0-0.3L649.1,169.4
						C649.1,169.4,649.1,169.3,649.1,169.4z"/>
				</g>
			</g>
		</g>
		<g>
			<g>
				<g>
					<g>
						<path class="st18" d="M521.8,418.6l0.9,29.6l-1,9.3l-35.3-0.2c-0.9,0-1.6-0.7-1.6-1.6l0,0c0-0.7,0.4-1.3,1-1.5l15.8-7.2
							l-2.4-30.8"/>
						<path class="st31" d="M483.3,457c0.4-1.2,1.1-2.5,1.7-2.8l16.7-7.2c9.2,3.7,21.1,0.9,21.1,0.9l0.9,12.6c0,0.4-0.3,0.8-0.8,0.7
							l-39.5-0.2C482.7,461,483.2,457,483.3,457z"/>
						<path class="st22" d="M498.1,447.7c0.9,1.2,1.7,2.6,2.4,4"/>
						<path class="st22" d="M496,449c1,1.3,1.4,2.1,1.9,3.4"/>
						<path class="st22" d="M494.2,449.9c0.7,0.9,1.3,2.1,1.8,3.1"/>
					</g>
					<line class="st22" x1="523.5" y1="458.5" x2="483.1" y2="458.3"/>
					<path class="st22" d="M523.2,452.5c0,0-9.4,0.1-10.2,6"/>
					<path class="st22" d="M488.4,452.7c0,0,2.7,3.8,3.2,5.6"/>
				</g>
				<path class="st32" d="M517.7,302.3c0,0,4.3,7.2,5.5,12.6c2,8.6,0,17.4,0,17.4l-0.1,103.5h-26.2c0,0-5.8-119.3-3.2-134.8"/>
				<path class="st22" d="M500.9,435.8c0,0-5.8-119.3-3.2-134.8"/>
				<g>
					<g>
						<path class="st18" d="M492.8,407l11.9,27.1l2.6,9l-32.8,13c-0.8,0.3-1.8-0.1-2.1-0.9l0,0c-0.2-0.6-0.1-1.3,0.4-1.8l11.9-12.6
							L471,413.1"/>
						<path class="st21" d="M471.4,456.9c-0.1-1.2,0.1-2.7,0.6-3.2l12.8-12.9c9.9,0,19.9-7.1,19.9-7.1l5.5,11.3c0.2,0.4,0,0.8-0.4,1
							l-36.7,14.5C472.4,460.9,471.4,457,471.4,456.9z"/>
						<path class="st22" d="M481.7,442.8c1.3,0.8,2.6,1.7,3.7,2.8"/>
						<path class="st22" d="M480.2,444.8c1.4,0.9,2,1.5,3,2.4"/>
						<path class="st22" d="M478.9,446.3c0.9,0.6,2,1.5,2.8,2.2"/>
					</g>
					<line class="st22" x1="509.3" y1="443.3" x2="471.7" y2="458.2"/>
					<path class="st22" d="M506.7,437.9c0,0-8.7,3.6-7.3,9.3"/>
					<path class="st22" d="M474.6,451.1c0,0,3.9,2.6,5.1,4"/>
				</g>
				<path class="st21" d="M472.5,319.1c-13.5,33.1-13.7,36.6-15.9,52.8c-2.3,16.6,22.6,65.4,22.6,65.4l23.9-10.6
					c0,0-15.9-44.7-14.8-52.3c1.9-14.1,18.2-38.2,18.2-38.2s7.7-6.1,9.4-14.3c1.7-8.1-2-16.7-2-16.7"/>
				<path class="st22" d="M497.1,323c0.3-0.1,10.7-3.4,10.7-3.4"/>
				<line class="st22" x1="520" y1="316.6" x2="523.4" y2="315.5"/>
				<path class="st22" d="M480.5,318.1c0,0-16.7,36.2-18.9,52.8c-2.3,16.6,22,64,22,64"/>
				<path class="st22" d="M493.8,358.5c5.2-11.4,12.6-22.3,12.6-22.3s7.7-6.1,9.4-14.3"/>
			</g>
			<g>
				<path class="st18" d="M470.2,237.2l6.9,11.9c0,0-4.1,8.9-15.2,4.7l-2.8-6.3L470.2,237.2z"/>
				<path class="st18" d="M452,229.1c0,0-3.4,15.9,2.5,18.7c3.1,1.5,11.6,0.6,13.6-2.7c1.5-2.4,0.9-13.9-0.9-15.2
					C460.2,224.6,452,229.1,452,229.1z"/>
				<g>
					<path class="st27" d="M466.9,224.4c-2.6-4.5-7.8-3.6-16.3,1.2c-1.1,0.6-3.6,0.9-3.6,2.2c0,1.7,1.2,4.6,3.2,5.1
						c1.3,0.4,2,0.3,3.4-0.1c1.8-0.4,4.1,0.3,4.1,2.4c0,0.5-0.2,1.5,0.3,1.7c0.3,0.1,0.9,0,1.2,0c0.8,0,1.2,1,1.1,1.8
						c-0.1,0.8,0.4,1.4,0.3,2.2c-0.2,1.9,2.1,3.9,4,4.1c1.7,0.1,6.5-0.7,8.8-3.8c2-2.7,1.7-7.3-1.6-14.1
						C470.6,224.6,467.8,223.8,466.9,224.4z"/>
				</g>
				<path class="st18" d="M457.5,237.8c0.5-2.5,1.9-2.8,3-2.1c1.5,0.9,1.2,4.5,0.6,5.4c-1.1,1.8-2.5,2.3-3.3,1.1"/>
				<path class="st33" d="M459.6,248.5c1.8-1.5,1.5-4.2,1.5-4.2"/>
				<g>
					<g>
						<path class="st34" d="M452.5,236.7c-0.2,0.5-0.3,1.4,0.1,1.7c0.1,0.1,0.3,0.1,0.4,0C454,237.9,453.1,235.6,452.5,236.7z"/>
					</g>
				</g>
				<path class="st35" d="M451.8,235c0.7-0.1,1.9,0,2.6,0.5"/>
				<path class="st0" d="M454.7,242.5l-2.6-0.1c0,0-0.1,3.1,1.1,3.2C454.6,245.7,454.7,242.5,454.7,242.5z"/>
			</g>
			<g>
				<path class="st5" d="M475.5,246.4c0,0,6-1.5,14.4,0.9c7.1,2.1,16.2,7.4,23,14.7c11.8,12.6,6.4,43.8,6.4,43.8l-15.4-0.6
					c0,0,2.4-20.1-5.6-28.1c-8.1-8.1-19.4-9.9-19.4-9.9"/>
				<g>
					<path class="st18" d="M410.3,290.3c-4.8,1.3-19.4,2.9-19.6,3.9c-0.2,1,4.9,0.5,4.6,1.3c-0.3,0.8-8.2,2.1-8.2,3.1
						c0,1.4,8-0.3,8-0.3s-3.3,0.6-2.9,1.8c0.3,0.9,1.6,1.1,4.3,0.9c-1.4,0.3-2,1-1.7,1.9c0.3,0.9,1.7,0.8,3.2,0.6
						c-1,0.2-1.8,0.9-1.1,1.5c0.9,0.8,6.8,0.4,17.4-1.4"/>
				</g>
				<path class="st5" d="M460.3,250.4c0,0,4.1,1.8,8.7,0c4.6-1.8,6.5-4,6.5-4s10.3-0.7,22.9,11.9C511.1,270.9,521,307,521,307
					l-52.1,17.5c0,0-8.9-31.5-12.4-45.9C453,264.2,460.3,250.4,460.3,250.4z"/>
				<path class="st36" d="M497.7,254.9c10.4,12.2,23.3,52,23.3,52"/>
				<path class="st5" d="M460.3,250.4c-6.9,2.6-12.7,9.3-16.4,16.1c-5.9,11.2-9.5,19.4-9.5,19.4l-29.9,4.5l1.5,15.9
					c0,0,20.3-0.6,36.4-3c11.5-1.7,20.4-25.5,20.4-25.5"/>
				<path class="st36" d="M458.3,251.3c0,0,3.3,4.4,11.2,1.4c7.9-3,8.2-6.6,8.2-6.6"/>
				<line class="st36" x1="459" y1="285.9" x2="462.3" y2="279.1"/>
				<line class="st36" x1="409.3" y1="289.6" x2="410.4" y2="306"/>
				<line class="st36" x1="468" y1="321.1" x2="520" y2="303.9"/>
			</g>
		</g>
		<g>
			<g>
				<path class="st18" d="M263.2,277.5c0.2,0.2,0.5,0.3,0.7,0.5c2.3,1.5,4.7,3,7.4,3.8c1.5,0.5,3.2,0.7,4.5,1.7
					c0.5,0.4,0.9,0.8,1.5,1.2c0.1,0.1,1.6,0.6,1.6,0.5c0.2,0.5,0.8,0.8,1.3,1c0.1,0,0.1,0.1,0.2,0s0.1-0.1,0.1-0.1
					c0.2,0.4,0.9,0.5,1.1,0.3c0.2-0.2-0.3-1.1-0.3-1.1s0.4,0,0.5-0.1c0.2-0.2,0.2-0.5,0.2-0.7c0.2-2.4-0.8-4.9-2.5-6.6"/>
			</g>
			<g>
				<g>
					<path class="st37" d="M279.8,282.5c0,0.4,0.2,0.8,0.4,1.2c0.2,0.4,0.3,0.8,0.6,1.2c0.1,0.2,0.4,0.1,0.3-0.1
						c-0.1-0.5-0.2-0.9-0.5-1.3c-0.2-0.4-0.4-0.8-0.7-1C279.9,282.4,279.8,282.4,279.8,282.5L279.8,282.5z"/>
				</g>
			</g>
			<g>
				<g>
					<path class="st37" d="M277.3,282.5c0.9,1,1.8,1.9,2.6,3c0.1,0.1,0.3,0.1,0.2-0.1c-0.4-1.3-1.7-2.1-2.6-3
						C277.4,282.3,277.2,282.4,277.3,282.5L277.3,282.5z"/>
				</g>
			</g>
			<g>
				<line class="st38" x1="261.2" y1="461.2" x2="243.4" y2="279.9"/>
				<polyline class="st38" points="330.4,461.2 312.6,279.9 243.4,279.9 				"/>
				<line class="st38" x1="294.8" y1="461.2" x2="312.6" y2="279.9"/>
				<polyline class="st38" points="225.7,461.2 243.4,279.9 312.6,279.9 				"/>
				<line class="st38" x1="327.5" y1="435.5" x2="228.2" y2="435.5"/>
				<line class="st38" x1="325.2" y1="413.3" x2="230.4" y2="413.3"/>
				<line class="st38" x1="323.5" y1="390.5" x2="232.6" y2="390.5"/>
				<line class="st38" x1="321.2" y1="368.8" x2="234.7" y2="368.8"/>
				<line class="st38" x1="319.1" y1="346" x2="236.9" y2="346"/>
				<line class="st38" x1="316.9" y1="323.5" x2="239.1" y2="323.5"/>
				<line class="st38" x1="314.3" y1="302.3" x2="241.2" y2="302.3"/>
			</g>
			<g>
				<path class="st18" d="M259.3,279.4c7.1,0,14.2,0,21.3,0c-0.7-1.2-1.1-2-1.8-2.7c-0.9-0.9-1.7-1.5-2.6-2c-3.3-1.7-7-2.6-10.7-2.6
					"/>
			</g>
			<path class="st39" d="M234.6,230.5c0,0,9.7,25.3,12.1,27.4c2.4,2.1,25.6,13.6,25.6,13.6l-7.1,15c0,0-27.8-11.1-31.8-15
				c-4-3.9-16.7-18.9-17.9-34.1"/>
			<g>
				<g>
					<g>
						<path class="st18" d="M216,395.9l-1,27.2l0.8,8.6l32.5,0c0.8,0,1.5-0.7,1.5-1.5l0,0c0-0.6-0.4-1.2-1-1.4l-14.5-6.7l2.3-28.3"
							/>
						<path class="st19" d="M251.3,431.3c-0.3-1.1-1-2.3-1.6-2.6l-15.3-6.7c-8.5,3.4-19.4,0.7-19.4,0.7l-0.9,11.6
							c0,0.4,0.3,0.7,0.7,0.7l36.3,0C251.8,435,251.3,431.4,251.3,431.3z"/>
						<path class="st20" d="M237.7,422.8c-0.9,1.1-1.6,2.3-2.2,3.6"/>
						<path class="st20" d="M239.6,423.9c-0.9,1.2-1.3,1.9-1.8,3.1"/>
						<path class="st20" d="M241.3,424.8c-0.6,0.8-1.2,1.9-1.7,2.8"/>
					</g>
					<line class="st20" x1="214.3" y1="432.5" x2="251.5" y2="432.5"/>
					<path class="st20" d="M214.6,427c0,0,8.6,0.1,9.4,5.5"/>
					<path class="st20" d="M246.6,427.4c0,0-2.5,3.5-3,5.1"/>
				</g>
				<path class="st5" d="M208.9,293.5c0,0-3.1,13.9,3.6,30.7c0,0,3.3,17.6,3.5,37.7c0.3,20.5-2.5,46.6-2.5,56.4h26.7
					c0,0,3.3-27.8,3.6-55.8c0.3-31.4-2.3-66.8-2.3-75.9"/>
				<path class="st36" d="M236.2,418.3c0,0,3.3-28.3,3.6-56.6c0.3-31.1-2.3-66-2.3-75"/>
				<g>
					<g>
						<path class="st18" d="M261.2,373.7l-1,27.2l0.8,8.6l32.5,0c0.8,0,1.5-0.7,1.5-1.5l0,0c0-0.6-0.4-1.2-1-1.4l-14.5-6.7l2.3-28.3
							"/>
						<path class="st19" d="M296.5,409.2c-0.3-1.1-1-2.3-1.6-2.6l-15.3-6.7c-8.5,3.4-19.4,0.7-19.4,0.7l-0.9,11.6
							c0,0.4,0.3,0.7,0.7,0.7l36.3,0C297,412.9,296.5,409.2,296.5,409.2z"/>
						<path class="st20" d="M282.9,400.6c-0.9,1.1-1.6,2.3-2.2,3.6"/>
						<path class="st20" d="M284.8,401.8c-0.9,1.2-1.3,1.9-1.8,3.1"/>
						<path class="st20" d="M286.4,402.6c-0.6,0.8-1.2,1.9-1.7,2.8"/>
					</g>
					<line class="st20" x1="259.4" y1="410.4" x2="296.6" y2="410.4"/>
					<path class="st20" d="M259.8,404.8c0,0,8.6,0.1,9.4,5.5"/>
					<path class="st20" d="M291.7,405.2c0,0-2.5,3.5-3,5.1"/>
				</g>
				<path class="st5" d="M253.9,295c0,0,25.7,24.3,31.5,40.2c4,11-1.8,61.5-1.8,61.5h-25.6c0,0,3.1-45.9,1.5-50.6
					c-1.9-5.6-23.9-24.6-23.9-24.6s-9.4-2.1-13.8-12.1c-4-9-2.1-19.9-2.1-19.9"/>
				<path class="st36" d="M247.9,295c0,0,26.6,28.1,31.5,40.2c3.7,9.2-1.8,61.5-1.8,61.5"/>
				<path class="st36" d="M243.3,328.4c-2-1.8-5.5-5-6.6-5.9c-0.7-0.6-1.5-1.1-2.3-1.4c-2.6-0.9-9.2-3.9-12.7-11.7"/>
				<path class="st36" d="M228.8,303.8c0,0,7.7,0.3,10.9,0"/>
				<line class="st36" x1="208.1" y1="303.8" x2="214.3" y2="303.8"/>
			</g>
			<g>
				<g>
					<g>
						<g>
							<path class="st18" d="M299.7,233.4c2.7-1.2,14.9-6.6,15.2-5.8c0.3,0.7-3.6,3.3-3.2,3.4c0.2,0.1,3.7-0.8,5.4-1.7
								c1.5-0.8,4.1-1.7,4.6-1.1c0.8,1.2-7.7,5.2-7.7,5.2s1.5-0.7,2.3,0.2c1.1,1.3-1.2,2.6-1.2,2.6s1.3-0.7,1.8,0.5
								c0.5,1.2-1.5,2.2-1.5,2.2s1.6-0.8,1.8,0.7c0.3,1.9-12.4,6.4-12.4,6.4"/>
						</g>
					</g>
				</g>
				<path class="st19" d="M237.8,221c0,0-2.6,2-6.6,1.3c-4.1-0.7-5.1-2.7-5.1-2.7s-10.8,1.5-16.1,35c-3.7,23.5-2.4,42.6-2.4,42.6
					h49.5c0,0,1.5-51.1-1-60.6"/>
				<path class="st19" d="M241.7,245.6c0,0,14.6,16.2,28.3,16.2c13.7,0,39.4-14.5,39.4-14.5l-6.1-16.9l-29.9,10.7
					c0,0-15.7-14.7-23-17.4c-7.3-2.7-12.6-2.7-12.6-2.7"/>
				<path class="st20" d="M257.5,258.1c0,0-9.2-7-13.6-10.3"/>
				<line class="st20" x1="300.4" y1="231.5" x2="306.1" y2="249.1"/>
				<line class="st20" x1="207.5" y1="293.2" x2="257.2" y2="293.2"/>
				<path class="st20" d="M248.8,251.5c0.5,14.2,0,45.8,0,45.8"/>
			</g>
			<g>
				<path class="st18" d="M226.3,212.4l-1.1,9c0,0,8.7,4.6,14.5-0.3v-5.3L226.3,212.4z"/>
				<path class="st18" d="M238.1,198.3c0,0,10.2,12.8,6.5,17.6c-1.9,2.5-8.2,1.9-11.3,0c-2.2-1.4-8.5-8.8-7.5-10.7
					C229.5,197.8,238.1,198.3,238.1,198.3z"/>
				<path class="st25" d="M236.8,200.6c0.2,5.2-0.5,9.9-0.5,9.9l-0.8,16.9c0,0-13.4,1.4-22-4.5c0,0,2.9-17.8,9.3-23.1
					c6.1-5.1,14-4.7,18.1-1.4c0,0-0.6,1.5-1.3,1.9C238.8,200.5,236.8,200.6,236.8,200.6"/>
				<path class="st18" d="M237.7,208.8c-1.2-1.6-2.2-1.3-2.8-0.5c-0.7,1.2,0.7,3.6,1.4,4c1.4,0.8,2.5,0.7,2.6-0.4"/>
				<path class="st33" d="M239.8,217.4c-1.5,0-1.9-1.2-1.9-1.2"/>
				<g>
					<g>
						<path class="st34" d="M240.8,204.8c0.4,0.4,0.8,1,0.6,1.5c-0.1,0.1-0.2,0.2-0.3,0.2C240.1,206.3,239.9,204,240.8,204.8z"/>
					</g>
				</g>
				<path class="st40" d="M240.7,203c-1,0-1.6,0.8-1.9,1.5"/>
				<path class="st0" d="M241.6,211.4l2.3-0.7c0,0,0.9,2.8-0.2,3.1C242.5,214.2,241.6,211.4,241.6,211.4z"/>
				<g>
					<path class="st25" d="M229.3,196.7c0.9-0.2,1.5-1.2,1.5-2.1c0-0.9-0.6-1.8-1.5-2.2c-0.8-0.4-1.8-0.5-2.7-0.2
						c-0.3,0.1-0.7,0.2-1,0.4c-1.2,0.9-1.1,2.7-0.3,3.9c0.3,0.5,0.8,0.9,1.4,1c0.6,0.1,1.8-0.1,2.4-0.5"/>
				</g>
			</g>
			<path class="st18" d="M241.9,204.6c0.3,0.1,2.9,1.3,3,2.4c0,0.6-1.5,1.3-1.5,1.3"/>
			<g>
				<path class="st18" d="M277.2,277.3c1.6,1.7,2.1,3.4,2.8,4.8c0,0.1,0.1,0.1,0.1,0.2c0,0.3-0.5,0.3-0.8,0.2
					c-0.7-0.3-1.3-0.6-1.9-1.1c-0.2-0.2-0.4-0.4-0.7-0.5c-0.5-0.3-1-0.3-1.5-0.4c-2.1-0.3-4.3-1.3-5.4-3.2"/>
			</g>
			<g>
				<path class="st41" d="M277.2,277.3c1.1,1,1.9,2.3,2.5,3.7l0.5,1c0,0.1,0.1,0.2,0.1,0.4c0,0.2-0.2,0.3-0.3,0.4
					c-0.3,0.1-0.5,0.1-0.7,0c-0.7-0.3-1.4-0.7-2-1.2c-0.3-0.3-0.5-0.5-0.8-0.6c-0.3-0.1-0.7-0.2-1-0.2c-0.7-0.1-1.5-0.3-2.2-0.5
					c-1.4-0.6-2.7-1.6-3.3-2.9c0.8,1.3,2.1,2.1,3.5,2.6c0.7,0.2,1.4,0.4,2.1,0.5c0.4,0,0.8,0.1,1.2,0.2c0.4,0.1,0.7,0.4,1,0.7
					c0.5,0.5,1.2,0.9,1.8,1.1c0.1,0,0.3,0.1,0.4,0c0.1,0,0,0,0,0c0,0,0-0.1,0-0.1c-0.2-0.3-0.3-0.7-0.4-1
					C278.8,279.8,278.1,278.4,277.2,277.3z"/>
			</g>
		</g>
		<g>
			<g>
				<g>
					<g>
						<path class="st18" d="M106.8,420.2l-0.9,28.5l0.9,9l34-0.2c0.9,0,1.6-0.7,1.5-1.6l0,0c0-0.6-0.4-1.2-1-1.4l-15.2-7l2.3-29.7"
							/>
						<path class="st31" d="M144,457.1c-0.4-1.1-1-2.4-1.7-2.7l-16.1-6.9c-8.9,3.6-20.4,0.8-20.4,0.8l-0.9,12.1
							c0,0.4,0.3,0.7,0.7,0.7l38-0.2C144.5,461,144,457.2,144,457.1z"/>
						<path class="st42" d="M129.7,448.2c-0.9,1.2-1.7,2.5-2.3,3.8"/>
						<path class="st42" d="M131.7,449.4c-0.9,1.3-1.3,2-1.9,3.2"/>
						<path class="st42" d="M133.4,450.3c-0.6,0.9-1.3,2-1.7,3"/>
					</g>
					<line class="st42" x1="105.2" y1="458.6" x2="144.1" y2="458.4"/>
					<path class="st42" d="M105.5,452.8c0,0,9,0.1,9.8,5.7"/>
					<path class="st42" d="M139,453c0,0-2.6,3.7-3.1,5.4"/>
				</g>
				<path class="st5" d="M110,318c0,0,18.1,33.9,23.8,55.2c5.7,21.3-1.9,69.3-1.9,69.3h-28.1c0,0,5.6-52.1-1-69.3
					c-6.6-17.2-30.4-62.5-30.4-62.5"/>
				<path class="st36" d="M107.6,442.6c0,0,4.6-54.2,1.8-67.6c-2.8-13.4-22.3-44.6-22.3-44.6"/>
				<g>
					<g>
						<path class="st18" d="M74.6,404.3L58,427.2l-4.5,7.8L81,454.9c0.7,0.5,1.7,0.3,2.2-0.4l0,0c0.4-0.5,0.4-1.2,0-1.8l-8.2-14.6
							l18.4-24"/>
						<path class="st31" d="M83.8,456.4c0.4-1.1,0.6-2.5,0.2-3.2L75,438.2c-9.3-2.3-17-11.3-17-11.3l-7.8,9.3
							c-0.2,0.3-0.2,0.8,0.2,1l30.9,22.2C81.9,459.9,83.8,456.5,83.8,456.4z"/>
						<path class="st42" d="M77.5,440.8c-1.4,0.4-2.8,1-4.1,1.7"/>
						<path class="st42" d="M78.4,443c-1.5,0.5-2.3,0.9-3.4,1.5"/>
						<path class="st42" d="M79.2,444.7c-1,0.3-2.2,0.9-3.2,1.4"/>
					</g>
					<line class="st42" x1="51.5" y1="434.8" x2="83.2" y2="457.5"/>
					<path class="st42" d="M55.2,430.3c0,0,7.3,5.4,4.6,10.4"/>
					<path class="st42" d="M82.1,450.2c0,0-4.3,1.5-5.7,2.5"/>
				</g>
				<path class="st5" d="M64.9,310.7c-5.4,15.2,0,27.1,0,27.1s18.3,33.4,18.3,40.2c0,6.2-23.4,41.7-23.4,41.7l21.4,17.2
					c0,0,33.7-36.2,33-61.3c-0.8-31-17.7-64.9-17.7-64.9"/>
				<path class="st36" d="M68.9,311.7c-5.4,15.2,1.1,25.4,1.1,25.4s17.2,35.1,17.2,41.9c0,6.2-24.4,43.2-24.4,43.2"/>
				<path class="st36" d="M105.7,403.1c5-9.2,8.7-19,8.5-27.5c-0.8-31-17.7-64.9-17.7-64.9"/>
				<path class="st36" d="M67.1,323.6c0,0,9.6,0.6,13.3-7.1"/>
				<path class="st36" d="M103.8,328c0,0,2.6,0.3,2.4-1s-2.4-8.3-2.4-8.3"/>
			</g>
			<g>
				<path class="st43" d="M115.9,230.2c1,6.1,0.2,11.5-5,12.3c-5.2,0.8-12.5-0.7-13.9-9.4c-1-6.1,2.5-11.7,7.7-12.6
					C109.9,219.7,115,224,115.9,230.2z"/>
				<g>
					<g>
						<path class="st34" d="M111.7,230.2c-0.1,0.6,0,1.3,0.5,1.6c0.1,0.1,0.3,0,0.4-0.1C113.3,231,111.9,229,111.7,230.2z"/>
					</g>
				</g>
				<path class="st44" d="M110,228.8c1.3-0.7,2.5-0.6,3.6-0.2"/>
				<path class="st0" d="M115.1,236.6l-3.4,0c0,0-0.2,2.8,1.5,3.1C114.6,239.9,115.1,236.6,115.1,236.6z"/>
				<g>
					<path class="st43" d="M108.2,249.2c0,0-4.1,0.7-7.9-0.3c-4.5-1.2-5.8-3.1-5.8-3.1l6.3-13.1l9.7,4.4L108.2,249.2z"/>
				</g>
				<path class="st24" d="M109.4,242.7c0,0-4.2,0.1-6.4-1.9"/>
				<path class="st43" d="M114.8,230c0,0,2.6,3.8,2.5,4.5c-0.1,0.7-2,1-2,1"/>
				<g>
					<path class="st45" d="M100.8,238.6c-0.6,0.2-1.3,0.3-1.8,0.4c-1.2,0.1-2.5,0-3.6-0.6c-2-1.1-3.3-3.4-2.8-5.7
						c0.1-0.4,0.2-0.7,0.2-1.1c0.3-1.7-0.7-3.3-1-5.1c-0.3-1.7,0.2-3.4,1.1-4.8c0.9-1.4,2.3-2.4,3.9-3c1.3-0.5,2.6-0.7,3.7-1.6
						c0.5-0.4,0.9-0.9,1.5-1.2c2.6-1.6,6.3-0.7,8.6,1c0.3,0.2,0.6,0.4,0.9,0.5c0.6,0.2,1.2-0.1,1.7,0c2.2,0.4,3.2,3.7,3.2,5.7
						c0,0.6-0.2,1.2-0.5,1.6c-0.5,0.7-1.4,1-2.2,1.1c-1.2,0.1-2.4-0.1-3.5,0.3c-0.8,0.2-1.5,0.8-2.3,1.1c-1.2,0.5-2.6,0.4-3.7-0.1
						c0.2,0.8,0.4,1.7,0.3,2.5c-0.2,1.6-1.6,2.3-3,2.7c0.5,1.6,0.8,3.6,0.4,5.2C101.7,238.1,101.3,238.4,100.8,238.6z"/>
				</g>
				<path class="st23" d="M102.7,231.1c0,0-1.2-1.5-2.7-0.3c-1.9,1.6,0.6,5,2.1,5.5c1.5,0.6,1.9-1.1,1.9-1.1"/>
			</g>
			<g>
				<path class="st5" d="M173.7,297.8c2-1.7,3.8-3.6,5.4-5.8c1.6-2.2,2.9-4.5,3.9-6.9l-6.3-3.4c0.9-2.2,1.4-4.5,1.7-6.9l7.2,0
					c0.4-5.3-0.4-10.6-2.3-15.5l-6.9,2.1c-0.9-2.2-2.1-4.2-3.6-6.1l5.1-5.1c-1.7-2-3.6-3.8-5.8-5.4c-2.2-1.6-4.5-2.9-6.9-3.9
					l-3.4,6.3c-2.2-0.9-4.5-1.4-6.9-1.7l0-7.2c-5.3-0.4-10.6,0.4-15.5,2.3l2.1,6.9c-2.2,0.9-4.2,2.1-6.1,3.6l-5.1-5.1
					c-2,1.7-3.8,3.6-5.4,5.8c-1.6,2.2-2.9,4.5-3.9,6.9l6.3,3.4c-0.9,2.2-1.4,4.5-1.7,6.9l-7.2,0c-0.4,5.3,0.4,10.6,2.3,15.5l6.9-2.1
					c0.9,2.2,2.1,4.2,3.6,6.1l-5.1,5.1c1.7,2,3.6,3.8,5.8,5.4c2.2,1.6,4.5,2.9,6.9,3.9l3.4-6.3c2.2,0.9,4.5,1.4,6.9,1.7l0,7.2
					c5.3,0.4,10.6-0.4,15.5-2.3l-2.1-6.9c2.2-0.9,4.2-2.1,6.1-3.6L173.7,297.8z M144.5,282.2c-5.6-4.2-6.8-12.1-2.7-17.8
					c4.2-5.6,12.1-6.8,17.8-2.7c5.6,4.2,6.8,12.1,2.7,17.8C158.1,285.2,150.2,286.4,144.5,282.2z"/>
				<g>
					<g>
						<g>
							<path class="st18" d="M154,296.2c2.9,0.3,16.2,1.6,16.1,2.4c-0.1,0.8-4.6,1-4.4,1.4c0.2,0.6,3.6,1.1,5.5,1.2
								c1.7,0.1,4.5,0.5,4.5,1.3c0.1,1.4-9.3,0.8-9.3,0.8c0,0.4,10.2-1.2,10.4,0c0.3,1.7-10.6,2.6-10.9,3c0,0,9.2-3.3,9.5-2.1
								c0.2,1.3-7.9,4.5-10.6,4.5c2.1-0.4,8.4-4,8.6-3.1c0.2,0.9-5.4,3.3-6.3,3.5c-7.4,1.2-15,0.5-15,0.5"/>
						</g>
					</g>
				</g>
				<path class="st21" d="M108.3,248.4c0,0-2.9,1.4-7.2-0.5c-4.7-2-5.7-4.4-5.7-4.4s-25.4,2.3-34.7,72.8l52.1,6.5
					c0,0,4.2-25.2,3.5-45.6C115.9,264.1,110.9,254,108.3,248.4"/>
				<path class="st21" d="M93,276.6c0,0,8,26.8,29.7,32.6c19.3,5.2,34.3,5.1,34.3,5.1l2.1-18.1c0,0-23.6-4.2-33.3-10.6
					c-7.4-4.9-8.8-20.5-10.7-26.1c-2.6-7.7-6.8-11.3-6.8-11.3"/>
				<path class="st22" d="M93.4,244c0,0,1.6,4.9,9,6.5c5.4,1.2,7.5-0.4,7.5-0.4"/>
				<path class="st22" d="M114.2,306.2c0,0-19.7-9.1-20.8-34.9"/>
				<line class="st22" x1="154.7" y1="295.5" x2="152.1" y2="314.2"/>
			</g>
		</g>
	</g>
</g>
</svg>
