<svg width="2340" height="196" viewBox="0 0 2340 196" fill="none" xmlns="http://www.w3.org/2000/svg">
<line y1="64" x2="2304" y2="64" stroke="#BDBDBD" stroke-width="4"/>
<rect width="480" height="128" rx="58" fill="#38C4A5" fill-opacity="0.12"/>
<rect width="480" height="128" rx="58" fill="#DCEDE9"/>
<path d="M156.148 81H163.252V70.392H167.572C174.196 70.392 179.812 67.128 179.812 59.784C179.812 52.2 174.388 49.704 167.572 49.704H156.148V81ZM163.252 64.776V55.32H167.14C170.884 55.32 172.9 56.52 172.9 59.784C172.9 63.048 171.028 64.776 167.14 64.776H163.252ZM184.683 81H191.739V67.176C192.987 63.96 195.195 62.808 196.971 62.808C197.979 62.808 198.699 62.952 199.563 63.192L200.715 57.096C200.043 56.808 199.227 56.616 197.883 56.616C195.435 56.616 192.843 58.152 191.115 61.368H190.923L190.443 57.192H184.683V81ZM201.947 69.096C201.947 77.016 207.515 81.576 213.563 81.576C219.563 81.576 225.131 77.016 225.131 69.096C225.131 61.176 219.563 56.616 213.563 56.616C207.515 56.616 201.947 61.176 201.947 69.096ZM209.195 69.096C209.195 64.968 210.635 62.328 213.563 62.328C216.443 62.328 217.931 64.968 217.931 69.096C217.931 73.224 216.443 75.864 213.563 75.864C210.635 75.864 209.195 73.224 209.195 69.096ZM230.012 81.048C230.012 83.688 229.388 84.888 227.516 84.888C226.844 84.888 226.268 84.744 225.644 84.552L224.396 89.736C225.356 90.12 226.604 90.408 228.572 90.408C235.052 90.408 237.068 86.04 237.068 80.856V57.192H230.012V81.048ZM233.564 53.688C235.916 53.688 237.644 52.152 237.644 49.992C237.644 47.832 235.916 46.344 233.564 46.344C231.212 46.344 229.484 47.832 229.484 49.992C229.484 52.152 231.212 53.688 233.564 53.688ZM241.931 69.096C241.931 76.968 247.163 81.576 253.979 81.576C256.811 81.576 259.979 80.568 262.427 78.888L260.075 74.616C258.347 75.672 256.715 76.2 254.939 76.2C251.771 76.2 249.371 74.616 248.747 71.016H263.003C263.147 70.44 263.291 69.288 263.291 68.04C263.291 61.56 259.931 56.616 253.163 56.616C247.451 56.616 241.931 61.368 241.931 69.096ZM248.699 66.648C249.179 63.48 251.099 61.992 253.307 61.992C256.139 61.992 257.291 63.912 257.291 66.648H248.699ZM266.775 69.096C266.775 77.016 271.911 81.576 278.535 81.576C281.127 81.576 284.151 80.616 286.455 78.6L283.623 74.136C282.471 75.048 281.079 75.864 279.351 75.864C276.279 75.864 274.023 73.224 274.023 69.096C274.023 64.968 276.183 62.328 279.591 62.328C280.695 62.328 281.751 62.76 282.903 63.72L286.119 59.352C284.535 57.72 282.087 56.616 279.159 56.616C272.583 56.616 266.775 61.176 266.775 69.096ZM291.533 72.36C291.533 77.88 293.837 81.576 299.741 81.576C302.045 81.576 303.773 81.096 305.021 80.712L303.917 75.576C303.293 75.816 302.429 76.056 301.661 76.056C299.789 76.056 298.589 74.952 298.589 72.264V62.712H304.301V57.192H298.589V50.856H292.733L291.917 57.192L288.269 57.48V62.712H291.533V72.36ZM306.836 78.264C309.236 80.232 312.836 81.576 315.956 81.576C322.34 81.576 325.748 78.216 325.748 73.896C325.748 69.528 322.34 67.848 319.316 66.744C316.868 65.832 314.66 65.256 314.66 63.72C314.66 62.52 315.524 61.848 317.348 61.848C319.028 61.848 320.66 62.616 322.388 63.864L325.556 59.64C323.492 58.104 320.804 56.616 317.156 56.616C311.636 56.616 308.036 59.64 308.036 64.056C308.036 67.992 311.444 69.96 314.324 71.064C316.772 72.024 319.172 72.744 319.172 74.328C319.172 75.576 318.26 76.344 316.148 76.344C314.132 76.344 312.164 75.48 310.004 73.848L306.836 78.264Z" fill="#2D957E"/>
<path d="M155.02 188H160.48L162.34 179.12C162.64 177.62 162.88 176.03 163.12 174.59H163.24C163.45 176.03 163.72 177.62 164.02 179.12L165.94 188H171.49L174.97 168.44H170.74L169.39 177.59C169.12 179.6 168.85 181.67 168.61 183.77H168.49C168.1 181.67 167.71 179.57 167.32 177.59L165.19 168.44H161.44L159.34 177.59C158.95 179.63 158.56 181.7 158.2 183.77H158.08C157.81 181.7 157.54 179.63 157.27 177.59L155.92 168.44H151.39L155.02 188ZM177.626 188H182.066V179.84H188.816V188H193.226V168.44H188.816V175.97H182.066V168.44H177.626V188ZM201.892 179.9L202.372 178.1C202.912 176.15 203.452 173.87 203.902 171.8H204.022C204.562 173.84 205.072 176.15 205.612 178.1L206.092 179.9H201.892ZM208.192 188H212.872L206.722 168.44H201.442L195.292 188H199.792L200.992 183.35H206.992L208.192 188ZM217.559 188H221.969V172.16H227.339V168.44H212.159V172.16H217.559V188ZM238.34 188H243.8L245.66 179.12C245.96 177.62 246.2 176.03 246.44 174.59H246.56C246.77 176.03 247.04 177.62 247.34 179.12L249.26 188H254.81L258.29 168.44H254.06L252.71 177.59C252.44 179.6 252.17 181.67 251.93 183.77H251.81C251.42 181.67 251.03 179.57 250.64 177.59L248.51 168.44H244.76L242.66 177.59C242.27 179.63 241.88 181.7 241.52 183.77H241.4C241.13 181.7 240.86 179.63 240.59 177.59L239.24 168.44H234.71L238.34 188ZM260.946 188H273.516V184.28H265.386V179.78H272.046V176.09H265.386V172.16H273.216V168.44H260.946V188ZM283.563 188H289.353C295.083 188 298.923 184.85 298.923 178.13C298.923 171.41 295.083 168.44 289.083 168.44H283.563V188ZM288.003 184.43V172.01H288.843C292.143 172.01 294.393 173.45 294.393 178.13C294.393 182.81 292.143 184.43 288.843 184.43H288.003ZM302.577 188H307.017V168.44H302.577V188ZM311.571 188H317.361C323.091 188 326.931 184.85 326.931 178.13C326.931 171.41 323.091 168.44 317.091 168.44H311.571V188ZM316.011 184.43V172.01H316.851C320.151 172.01 322.401 173.45 322.401 178.13C322.401 182.81 320.151 184.43 316.851 184.43H316.011Z" fill="#4E4E4E"/>
<path fill-rule="evenodd" clip-rule="evenodd" d="M561.904 63.1425C562.551 63.5309 562.551 64.4691 561.904 64.8575L539.848 78.0913C539.181 78.4912 538.333 78.0111 538.333 77.2338V50.7662C538.333 49.9889 539.181 49.5088 539.848 49.9087L561.904 63.1425Z" fill="#BDBDBD" stroke="#BDBDBD" stroke-linejoin="round"/>
<rect x="620" width="480" height="128" rx="58" fill="#FEA707" fill-opacity="0.1"/>
<rect x="620" width="480" height="128" rx="58" fill="#F3EBDB"/>
<path d="M808.148 81H815.252V68.856H826.052V62.904H815.252V55.656H827.924V49.704H808.148V81ZM830.053 74.376C830.053 78.408 832.789 81.576 837.109 81.576C839.797 81.576 842.053 80.328 844.069 78.552H844.213L844.741 81H850.501V67.368C850.501 60.072 847.141 56.616 841.045 56.616C837.301 56.616 833.893 57.912 830.869 59.736L833.365 64.392C835.669 63.048 837.685 62.232 839.701 62.232C842.245 62.232 843.301 63.576 843.445 65.688C834.037 66.648 830.053 69.384 830.053 74.376ZM836.773 73.848C836.773 72.024 838.405 70.584 843.445 69.912V74.088C842.197 75.336 841.141 76.104 839.509 76.104C837.829 76.104 836.773 75.384 836.773 73.848ZM855.166 69.096C855.166 77.016 860.302 81.576 866.926 81.576C869.518 81.576 872.542 80.616 874.846 78.6L872.014 74.136C870.862 75.048 869.47 75.864 867.742 75.864C864.67 75.864 862.414 73.224 862.414 69.096C862.414 64.968 864.574 62.328 867.982 62.328C869.086 62.328 870.142 62.76 871.294 63.72L874.51 59.352C872.926 57.72 870.478 56.616 867.549 56.616C860.974 56.616 855.166 61.176 855.166 69.096ZM879.924 72.36C879.924 77.88 882.228 81.576 888.132 81.576C890.436 81.576 892.164 81.096 893.412 80.712L892.308 75.576C891.684 75.816 890.82 76.056 890.052 76.056C888.18 76.056 886.98 74.952 886.98 72.264V62.712H892.692V57.192H886.98V50.856H881.124L880.308 57.192L876.66 57.48V62.712H879.924V72.36ZM895.227 78.264C897.627 80.232 901.227 81.576 904.347 81.576C910.731 81.576 914.139 78.216 914.139 73.896C914.139 69.528 910.731 67.848 907.707 66.744C905.259 65.832 903.051 65.256 903.051 63.72C903.051 62.52 903.915 61.848 905.739 61.848C907.419 61.848 909.051 62.616 910.779 63.864L913.947 59.64C911.883 58.104 909.195 56.616 905.547 56.616C900.027 56.616 896.427 59.64 896.427 64.056C896.427 67.992 899.835 69.96 902.715 71.064C905.163 72.024 907.563 72.744 907.563 74.328C907.563 75.576 906.651 76.344 904.539 76.344C902.523 76.344 900.555 75.48 898.395 73.848L895.227 78.264Z" fill="#D88B00"/>
<path d="M737.02 185H742.48L744.34 176.12C744.64 174.62 744.88 173.03 745.12 171.59H745.24C745.45 173.03 745.72 174.62 746.02 176.12L747.94 185H753.49L756.97 165.44H752.74L751.39 174.59C751.12 176.6 750.85 178.67 750.61 180.77H750.49C750.1 178.67 749.71 176.57 749.32 174.59L747.19 165.44H743.44L741.34 174.59C740.95 176.63 740.56 178.7 740.2 180.77H740.08C739.81 178.7 739.54 176.63 739.27 174.59L737.92 165.44H733.39L737.02 185ZM759.626 185H764.066V176.84H770.816V185H775.226V165.44H770.816V172.97H764.066V165.44H759.626V185ZM783.892 176.9L784.372 175.1C784.912 173.15 785.452 170.87 785.902 168.8H786.022C786.562 170.84 787.072 173.15 787.612 175.1L788.092 176.9H783.892ZM790.192 185H794.872L788.722 165.44H783.442L777.292 185H781.792L782.992 180.35H788.992L790.192 185ZM799.559 185H803.969V169.16H809.339V165.44H794.159V169.16H799.559V185ZM820.34 185H825.8L827.66 176.12C827.96 174.62 828.2 173.03 828.44 171.59H828.56C828.77 173.03 829.04 174.62 829.34 176.12L831.26 185H836.81L840.29 165.44H836.06L834.71 174.59C834.44 176.6 834.17 178.67 833.93 180.77H833.81C833.42 178.67 833.03 176.57 832.64 174.59L830.51 165.44H826.76L824.66 174.59C824.27 176.63 823.88 178.7 823.52 180.77H823.4C823.13 178.7 822.86 176.63 822.59 174.59L821.24 165.44H816.71L820.34 185ZM842.946 185H855.516V181.28H847.386V176.78H854.046V173.09H847.386V169.16H855.216V165.44H842.946V185ZM865.563 185H877.713V181.28H870.003V165.44H865.563V185ZM881.032 185H893.602V181.28H885.472V176.78H892.132V173.09H885.472V169.16H893.302V165.44H881.032V185ZM901.519 176.9L901.999 175.1C902.539 173.15 903.079 170.87 903.529 168.8H903.649C904.189 170.84 904.699 173.15 905.239 175.1L905.719 176.9H901.519ZM907.819 185H912.499L906.349 165.44H901.069L894.919 185H899.419L900.619 180.35H906.619L907.819 185ZM918.988 168.95H921.238C923.548 168.95 924.808 169.61 924.808 171.53C924.808 173.45 923.548 174.44 921.238 174.44H918.988V168.95ZM930.088 185L925.678 177.17C927.748 176.24 929.158 174.41 929.158 171.53C929.158 166.88 925.738 165.44 921.598 165.44H914.548V185H918.988V177.95H921.388L925.138 185H930.088ZM933.005 185H937.235V178.07C937.235 175.76 936.875 173.15 936.665 170.99H936.785L938.705 175.25L943.805 185H948.335V165.44H944.135V172.34C944.135 174.65 944.495 177.41 944.705 179.48H944.585L942.635 175.16L937.535 165.44H933.005V185ZM952.926 185H965.496V181.28H957.366V176.78H964.026V173.09H957.366V169.16H965.196V165.44H952.926V185ZM969.303 185H975.093C980.823 185 984.663 181.85 984.663 175.13C984.663 168.41 980.823 165.44 974.823 165.44H969.303V185ZM973.743 181.43V169.01H974.583C977.883 169.01 980.133 170.45 980.133 175.13C980.133 179.81 977.883 181.43 974.583 181.43H973.743Z" fill="#4E4E4E"/>
<path fill-rule="evenodd" clip-rule="evenodd" d="M1181.9 63.1425C1182.55 63.5309 1182.55 64.4691 1181.9 64.8575L1159.85 78.0913C1159.18 78.4912 1158.33 78.0111 1158.33 77.2338V50.7662C1158.33 49.9889 1159.18 49.5088 1159.85 49.9087L1181.9 63.1425Z" fill="#BDBDBD" stroke="#BDBDBD" stroke-linejoin="round"/>
<rect x="1240" width="480" height="128" rx="58" fill="#DB4C4C" fill-opacity="0.15"/>
<rect x="1240" width="480" height="128" rx="58" fill="#EFD9D9"/>
<path d="M1398.65 81H1405.75V49.704H1398.65V81ZM1412.51 81H1419.57V64.92C1421.1 63.432 1422.21 62.616 1423.98 62.616C1426 62.616 1426.91 63.672 1426.91 67.128V81H1433.97V66.216C1433.97 60.264 1431.76 56.616 1426.57 56.616C1423.36 56.616 1420.96 58.296 1418.94 60.216H1418.75L1418.27 57.192H1412.51V81ZM1437.87 78.264C1440.27 80.232 1443.87 81.576 1446.99 81.576C1453.37 81.576 1456.78 78.216 1456.78 73.896C1456.78 69.528 1453.37 67.848 1450.35 66.744C1447.9 65.832 1445.69 65.256 1445.69 63.72C1445.69 62.52 1446.56 61.848 1448.38 61.848C1450.06 61.848 1451.69 62.616 1453.42 63.864L1456.59 59.64C1454.52 58.104 1451.84 56.616 1448.19 56.616C1442.67 56.616 1439.07 59.64 1439.07 64.056C1439.07 67.992 1442.48 69.96 1445.36 71.064C1447.8 72.024 1450.2 72.744 1450.2 74.328C1450.2 75.576 1449.29 76.344 1447.18 76.344C1445.16 76.344 1443.2 75.48 1441.04 73.848L1437.87 78.264ZM1464.76 53.688C1467.16 53.688 1468.84 52.152 1468.84 49.992C1468.84 47.832 1467.16 46.344 1464.76 46.344C1462.41 46.344 1460.68 47.832 1460.68 49.992C1460.68 52.152 1462.41 53.688 1464.76 53.688ZM1461.26 81H1468.32V57.192H1461.26V81ZM1478.85 83.976C1478.85 83.112 1479.28 82.392 1480.14 81.624C1480.91 81.816 1481.87 81.912 1483.5 81.912H1485.95C1488.3 81.912 1489.6 82.296 1489.6 83.784C1489.6 85.416 1487.29 86.712 1484.13 86.712C1480.96 86.712 1478.85 85.752 1478.85 83.976ZM1473.04 85.08C1473.04 89.304 1477.45 91.128 1483.02 91.128C1491.18 91.128 1496.32 87.528 1496.32 82.584C1496.32 78.312 1493.1 76.536 1487.25 76.536H1483.41C1480.77 76.536 1479.81 75.96 1479.81 74.76C1479.81 73.944 1480.05 73.512 1480.67 72.984C1481.73 73.32 1482.69 73.464 1483.55 73.464C1488.78 73.464 1492.91 70.92 1492.91 65.448C1492.91 64.2 1492.57 63.048 1492.14 62.328H1495.93V57.192H1487.25C1486.19 56.808 1484.89 56.616 1483.55 56.616C1478.41 56.616 1473.71 59.496 1473.71 65.208C1473.71 67.992 1475.25 70.248 1476.93 71.4V71.592C1475.39 72.648 1474.24 74.328 1474.24 76.056C1474.24 78.024 1475.2 79.272 1476.45 80.088V80.28C1474.24 81.528 1473.04 83.112 1473.04 85.08ZM1483.55 69.192C1481.68 69.192 1480.29 67.848 1480.29 65.208C1480.29 62.664 1481.68 61.368 1483.55 61.368C1485.42 61.368 1486.81 62.712 1486.81 65.208C1486.81 67.848 1485.42 69.192 1483.55 69.192ZM1500.17 81H1507.22V64.92C1508.76 63.432 1509.86 62.616 1511.64 62.616C1513.65 62.616 1514.57 63.672 1514.57 67.128V81H1521.62V66.216C1521.62 60.264 1519.41 56.616 1514.23 56.616C1511.01 56.616 1508.66 58.296 1506.89 59.88L1507.22 55.608V47.352H1500.17V81ZM1528.55 72.36C1528.55 77.88 1530.85 81.576 1536.76 81.576C1539.06 81.576 1540.79 81.096 1542.04 80.712L1540.93 75.576C1540.31 75.816 1539.44 76.056 1538.68 76.056C1536.8 76.056 1535.6 74.952 1535.6 72.264V62.712H1541.32V57.192H1535.6V50.856H1529.75L1528.93 57.192L1525.28 57.48V62.712H1528.55V72.36ZM1543.85 78.264C1546.25 80.232 1549.85 81.576 1552.97 81.576C1559.36 81.576 1562.76 78.216 1562.76 73.896C1562.76 69.528 1559.36 67.848 1556.33 66.744C1553.88 65.832 1551.68 65.256 1551.68 63.72C1551.68 62.52 1552.54 61.848 1554.36 61.848C1556.04 61.848 1557.68 62.616 1559.4 63.864L1562.57 59.64C1560.51 58.104 1557.82 56.616 1554.17 56.616C1548.65 56.616 1545.05 59.64 1545.05 64.056C1545.05 67.992 1548.46 69.96 1551.34 71.064C1553.79 72.024 1556.19 72.744 1556.19 74.328C1556.19 75.576 1555.28 76.344 1553.16 76.344C1551.15 76.344 1549.18 75.48 1547.02 73.848L1543.85 78.264Z" fill="#DB4C4C"/>
<path d="M1330.28 185H1334.72V176.84H1341.47V185H1345.88V165.44H1341.47V172.97H1334.72V165.44H1330.28V185ZM1358.39 185.36C1363.67 185.36 1367.27 181.52 1367.27 175.13C1367.27 168.77 1363.67 165.08 1358.39 165.08C1353.14 165.08 1349.51 168.74 1349.51 175.13C1349.51 181.52 1353.14 185.36 1358.39 185.36ZM1358.39 181.55C1355.75 181.55 1354.04 179.06 1354.04 175.13C1354.04 171.23 1355.75 168.89 1358.39 168.89C1361.06 168.89 1362.74 171.23 1362.74 175.13C1362.74 179.06 1361.06 181.55 1358.39 181.55ZM1372.65 185H1378.11L1379.97 176.12C1380.27 174.62 1380.51 173.03 1380.75 171.59H1380.87C1381.08 173.03 1381.35 174.62 1381.65 176.12L1383.57 185H1389.12L1392.6 165.44H1388.37L1387.02 174.59C1386.75 176.6 1386.48 178.67 1386.24 180.77H1386.12C1385.73 178.67 1385.34 176.57 1384.95 174.59L1382.82 165.44H1379.07L1376.97 174.59C1376.58 176.63 1376.19 178.7 1375.83 180.77H1375.71C1375.44 178.7 1375.17 176.63 1374.9 174.59L1373.55 165.44H1369.02L1372.65 185ZM1403.24 185H1408.7L1410.56 176.12C1410.86 174.62 1411.1 173.03 1411.34 171.59H1411.46C1411.67 173.03 1411.94 174.62 1412.24 176.12L1414.16 185H1419.71L1423.19 165.44H1418.96L1417.61 174.59C1417.34 176.6 1417.07 178.67 1416.83 180.77H1416.71C1416.32 178.67 1415.93 176.57 1415.54 174.59L1413.41 165.44H1409.66L1407.56 174.59C1407.17 176.63 1406.78 178.7 1406.42 180.77H1406.3C1406.03 178.7 1405.76 176.63 1405.49 174.59L1404.14 165.44H1399.61L1403.24 185ZM1425.85 185H1438.42V181.28H1430.29V176.78H1436.95V173.09H1430.29V169.16H1438.12V165.44H1425.85V185ZM1448.46 185H1452.9V165.44H1448.46V185ZM1457.46 185H1461.69V178.07C1461.69 175.76 1461.33 173.15 1461.12 170.99H1461.24L1463.16 175.25L1468.26 185H1472.79V165.44H1468.59V172.34C1468.59 174.65 1468.95 177.41 1469.16 179.48H1469.04L1467.09 175.16L1461.99 165.44H1457.46V185ZM1481.22 185H1485.63V169.16H1491V165.44H1475.82V169.16H1481.22V185ZM1494.02 185H1506.59V181.28H1498.46V176.78H1505.12V173.09H1498.46V169.16H1506.29V165.44H1494.02V185ZM1514.84 168.95H1517.09C1519.4 168.95 1520.66 169.61 1520.66 171.53C1520.66 173.45 1519.4 174.44 1517.09 174.44H1514.84V168.95ZM1525.94 185L1521.53 177.17C1523.6 176.24 1525.01 174.41 1525.01 171.53C1525.01 166.88 1521.59 165.44 1517.45 165.44H1510.4V185H1514.84V177.95H1517.24L1520.99 185H1525.94ZM1528.85 185H1533.29V178.37H1535.99C1540.13 178.37 1543.64 176.33 1543.64 171.74C1543.64 167 1540.25 165.44 1535.99 165.44H1528.85V185ZM1533.29 174.86V168.95H1535.72C1538.06 168.95 1539.32 169.7 1539.32 171.74C1539.32 173.78 1538.15 174.86 1535.72 174.86H1533.29ZM1551.46 168.95H1553.71C1556.02 168.95 1557.28 169.61 1557.28 171.53C1557.28 173.45 1556.02 174.44 1553.71 174.44H1551.46V168.95ZM1562.56 185L1558.15 177.17C1560.22 176.24 1561.63 174.41 1561.63 171.53C1561.63 166.88 1558.21 165.44 1554.07 165.44H1547.02V185H1551.46V177.95H1553.86L1557.61 185H1562.56ZM1565.48 185H1578.05V181.28H1569.92V176.78H1576.58V173.09H1569.92V169.16H1577.75V165.44H1565.48V185ZM1585.69 185H1590.1V169.16H1595.47V165.44H1580.29V169.16H1585.69V185ZM1598.49 185H1611.06V181.28H1602.93V176.78H1609.59V173.09H1602.93V169.16H1610.76V165.44H1598.49V185ZM1614.87 185H1620.66C1626.39 185 1630.23 181.85 1630.23 175.13C1630.23 168.41 1626.39 165.44 1620.39 165.44H1614.87V185ZM1619.31 181.43V169.01H1620.15C1623.45 169.01 1625.7 170.45 1625.7 175.13C1625.7 179.81 1623.45 181.43 1620.15 181.43H1619.31Z" fill="#4E4E4E"/>
<path fill-rule="evenodd" clip-rule="evenodd" d="M1801.9 63.1425C1802.55 63.5309 1802.55 64.4691 1801.9 64.8575L1779.85 78.0913C1779.18 78.4912 1778.33 78.0111 1778.33 77.2338V50.7662C1778.33 49.9889 1779.18 49.5088 1779.85 49.9087L1801.9 63.1425Z" fill="#BDBDBD" stroke="#BDBDBD" stroke-linejoin="round"/>
<rect x="1860" width="480" height="128" rx="58" fill="#00A5FF" fill-opacity="0.15"/>
<rect x="1860" width="480" height="128" rx="58" fill="#CEE7F4"/>
<path d="M1912.25 55.32H1915.85C1919.55 55.32 1921.56 56.376 1921.56 59.448C1921.56 62.52 1919.55 64.104 1915.85 64.104H1912.25V55.32ZM1930.01 81L1922.96 68.472C1926.27 66.984 1928.52 64.056 1928.52 59.448C1928.52 52.008 1923.05 49.704 1916.43 49.704H1905.15V81H1912.25V69.72H1916.09L1922.09 81H1930.01ZM1932.29 69.096C1932.29 76.968 1937.52 81.576 1944.34 81.576C1947.17 81.576 1950.34 80.568 1952.79 78.888L1950.43 74.616C1948.71 75.672 1947.07 76.2 1945.3 76.2C1942.13 76.2 1939.73 74.616 1939.11 71.016H1953.36C1953.51 70.44 1953.65 69.288 1953.65 68.04C1953.65 61.56 1950.29 56.616 1943.52 56.616C1937.81 56.616 1932.29 61.368 1932.29 69.096ZM1939.06 66.648C1939.54 63.48 1941.46 61.992 1943.67 61.992C1946.5 61.992 1947.65 63.912 1947.65 66.648H1939.06ZM1957.13 69.096C1957.13 77.016 1962.27 81.576 1968.89 81.576C1971.49 81.576 1974.51 80.616 1976.81 78.6L1973.98 74.136C1972.83 75.048 1971.44 75.864 1969.71 75.864C1966.64 75.864 1964.38 73.224 1964.38 69.096C1964.38 64.968 1966.54 62.328 1969.95 62.328C1971.05 62.328 1972.11 62.76 1973.26 63.72L1976.48 59.352C1974.89 57.72 1972.45 56.616 1969.52 56.616C1962.94 56.616 1957.13 61.176 1957.13 69.096ZM1978.18 69.096C1978.18 77.016 1983.75 81.576 1989.8 81.576C1995.8 81.576 2001.37 77.016 2001.37 69.096C2001.37 61.176 1995.8 56.616 1989.8 56.616C1983.75 56.616 1978.18 61.176 1978.18 69.096ZM1985.43 69.096C1985.43 64.968 1986.87 62.328 1989.8 62.328C1992.68 62.328 1994.17 64.968 1994.17 69.096C1994.17 73.224 1992.68 75.864 1989.8 75.864C1986.87 75.864 1985.43 73.224 1985.43 69.096ZM2006.2 81H2013.25V64.92C2014.74 63.384 2016.13 62.616 2017.29 62.616C2019.3 62.616 2020.21 63.672 2020.21 67.128V81H2027.27V64.92C2028.81 63.384 2030.15 62.616 2031.35 62.616C2033.37 62.616 2034.28 63.672 2034.28 67.128V81H2041.33V66.216C2041.33 60.264 2039.03 56.616 2033.89 56.616C2030.73 56.616 2028.52 58.44 2026.41 60.6C2025.21 58.056 2023.19 56.616 2019.83 56.616C2016.71 56.616 2014.6 58.296 2012.63 60.264H2012.44L2011.96 57.192H2006.2V81ZM2047.35 81H2054.41V64.92C2055.9 63.384 2057.29 62.616 2058.44 62.616C2060.46 62.616 2061.37 63.672 2061.37 67.128V81H2068.43V64.92C2069.96 63.384 2071.31 62.616 2072.51 62.616C2074.52 62.616 2075.43 63.672 2075.43 67.128V81H2082.49V66.216C2082.49 60.264 2080.19 56.616 2075.05 56.616C2071.88 56.616 2069.67 58.44 2067.56 60.6C2066.36 58.056 2064.35 56.616 2060.99 56.616C2057.87 56.616 2055.75 58.296 2053.79 60.264H2053.59L2053.11 57.192H2047.35V81ZM2087.12 69.096C2087.12 76.968 2092.35 81.576 2099.17 81.576C2102 81.576 2105.17 80.568 2107.61 78.888L2105.26 74.616C2103.53 75.672 2101.9 76.2 2100.13 76.2C2096.96 76.2 2094.56 74.616 2093.93 71.016H2108.19C2108.33 70.44 2108.48 69.288 2108.48 68.04C2108.48 61.56 2105.12 56.616 2098.35 56.616C2092.64 56.616 2087.12 61.368 2087.12 69.096ZM2093.89 66.648C2094.37 63.48 2096.29 61.992 2098.49 61.992C2101.33 61.992 2102.48 63.912 2102.48 66.648H2093.89ZM2113.35 81H2120.41V64.92C2121.95 63.432 2123.05 62.616 2124.83 62.616C2126.84 62.616 2127.75 63.672 2127.75 67.128V81H2134.81V66.216C2134.81 60.264 2132.6 56.616 2127.42 56.616C2124.2 56.616 2121.8 58.296 2119.79 60.216H2119.59L2119.11 57.192H2113.35V81ZM2139.58 69.096C2139.58 76.872 2143.42 81.576 2149.32 81.576C2151.62 81.576 2153.98 80.328 2155.66 78.648H2155.85L2156.33 81H2162.09V47.352H2155.03V55.464L2155.32 59.112C2153.69 57.576 2152.1 56.616 2149.46 56.616C2144.42 56.616 2139.58 61.32 2139.58 69.096ZM2146.82 69C2146.82 64.488 2148.84 62.376 2151.1 62.376C2152.39 62.376 2153.78 62.76 2155.03 63.912V73.656C2153.88 75.24 2152.68 75.816 2151.14 75.816C2148.41 75.816 2146.82 73.704 2146.82 69ZM2167.47 74.376C2167.47 78.408 2170.21 81.576 2174.53 81.576C2177.22 81.576 2179.47 80.328 2181.49 78.552H2181.63L2182.16 81H2187.92V67.368C2187.92 60.072 2184.56 56.616 2178.47 56.616C2174.72 56.616 2171.31 57.912 2168.29 59.736L2170.79 64.392C2173.09 63.048 2175.11 62.232 2177.12 62.232C2179.67 62.232 2180.72 63.576 2180.87 65.688C2171.46 66.648 2167.47 69.384 2167.47 74.376ZM2174.19 73.848C2174.19 72.024 2175.83 70.584 2180.87 69.912V74.088C2179.62 75.336 2178.56 76.104 2176.93 76.104C2175.25 76.104 2174.19 75.384 2174.19 73.848ZM2194.94 72.36C2194.94 77.88 2197.24 81.576 2203.15 81.576C2205.45 81.576 2207.18 81.096 2208.43 80.712L2207.32 75.576C2206.7 75.816 2205.84 76.056 2205.07 76.056C2203.2 76.056 2202 74.952 2202 72.264V62.712H2207.71V57.192H2202V50.856H2196.14L2195.32 57.192L2191.68 57.48V62.712H2194.94V72.36ZM2215.86 53.688C2218.26 53.688 2219.94 52.152 2219.94 49.992C2219.94 47.832 2218.26 46.344 2215.86 46.344C2213.51 46.344 2211.78 47.832 2211.78 49.992C2211.78 52.152 2213.51 53.688 2215.86 53.688ZM2212.35 81H2219.41V57.192H2212.35V81ZM2224.23 69.096C2224.23 77.016 2229.8 81.576 2235.84 81.576C2241.84 81.576 2247.41 77.016 2247.41 69.096C2247.41 61.176 2241.84 56.616 2235.84 56.616C2229.8 56.616 2224.23 61.176 2224.23 69.096ZM2231.48 69.096C2231.48 64.968 2232.92 62.328 2235.84 62.328C2238.72 62.328 2240.21 64.968 2240.21 69.096C2240.21 73.224 2238.72 75.864 2235.84 75.864C2232.92 75.864 2231.48 73.224 2231.48 69.096ZM2252.25 81H2259.3V64.92C2260.84 63.432 2261.94 62.616 2263.72 62.616C2265.73 62.616 2266.65 63.672 2266.65 67.128V81H2273.7V66.216C2273.7 60.264 2271.49 56.616 2266.31 56.616C2263.09 56.616 2260.69 58.296 2258.68 60.216H2258.49L2258.01 57.192H2252.25V81ZM2277.6 78.264C2280 80.232 2283.6 81.576 2286.72 81.576C2293.11 81.576 2296.51 78.216 2296.51 73.896C2296.51 69.528 2293.11 67.848 2290.08 66.744C2287.63 65.832 2285.43 65.256 2285.43 63.72C2285.43 62.52 2286.29 61.848 2288.11 61.848C2289.79 61.848 2291.43 62.616 2293.15 63.864L2296.32 59.64C2294.26 58.104 2291.57 56.616 2287.92 56.616C2282.4 56.616 2278.8 59.64 2278.8 64.056C2278.8 67.992 2282.21 69.96 2285.09 71.064C2287.54 72.024 2289.94 72.744 2289.94 74.328C2289.94 75.576 2289.03 76.344 2286.91 76.344C2284.9 76.344 2282.93 75.48 2280.77 73.848L2277.6 78.264Z" fill="#007EC4"/>
<path d="M1922.02 185H1927.48L1929.34 176.12C1929.64 174.62 1929.88 173.03 1930.12 171.59H1930.24C1930.45 173.03 1930.72 174.62 1931.02 176.12L1932.94 185H1938.49L1941.97 165.44H1937.74L1936.39 174.59C1936.12 176.6 1935.85 178.67 1935.61 180.77H1935.49C1935.1 178.67 1934.71 176.57 1934.32 174.59L1932.19 165.44H1928.44L1926.34 174.59C1925.95 176.63 1925.56 178.7 1925.2 180.77H1925.08C1924.81 178.7 1924.54 176.63 1924.27 174.59L1922.92 165.44H1918.39L1922.02 185ZM1944.63 185H1949.07V176.84H1955.82V185H1960.23V165.44H1955.82V172.97H1949.07V165.44H1944.63V185ZM1968.89 176.9L1969.37 175.1C1969.91 173.15 1970.45 170.87 1970.9 168.8H1971.02C1971.56 170.84 1972.07 173.15 1972.61 175.1L1973.09 176.9H1968.89ZM1975.19 185H1979.87L1973.72 165.44H1968.44L1962.29 185H1966.79L1967.99 180.35H1973.99L1975.19 185ZM1984.56 185H1988.97V169.16H1994.34V165.44H1979.16V169.16H1984.56V185ZM2005.34 185H2010.8L2012.66 176.12C2012.96 174.62 2013.2 173.03 2013.44 171.59H2013.56C2013.77 173.03 2014.04 174.62 2014.34 176.12L2016.26 185H2021.81L2025.29 165.44H2021.06L2019.71 174.59C2019.44 176.6 2019.17 178.67 2018.93 180.77H2018.81C2018.42 178.67 2018.03 176.57 2017.64 174.59L2015.51 165.44H2011.76L2009.66 174.59C2009.27 176.63 2008.88 178.7 2008.52 180.77H2008.4C2008.13 178.7 2007.86 176.63 2007.59 174.59L2006.24 165.44H2001.71L2005.34 185ZM2027.95 185H2040.52V181.28H2032.39V176.78H2039.05V173.09H2032.39V169.16H2040.22V165.44H2027.95V185ZM2049.3 182.54C2051.31 184.4 2054.01 185.36 2056.56 185.36C2061.21 185.36 2063.91 182.54 2063.91 179.3C2063.91 176.54 2062.41 174.95 2060.04 173.99L2057.55 172.97C2055.84 172.28 2054.55 171.86 2054.55 170.66C2054.55 169.55 2055.54 168.89 2057.04 168.89C2058.6 168.89 2059.83 169.46 2061.12 170.45L2063.34 167.66C2061.66 165.98 2059.29 165.08 2057.04 165.08C2052.99 165.08 2050.08 167.66 2050.08 170.9C2050.08 173.75 2052 175.43 2054.04 176.24L2056.56 177.32C2058.27 178.04 2059.38 178.43 2059.38 179.66C2059.38 180.83 2058.48 181.55 2056.65 181.55C2055.03 181.55 2053.23 180.71 2051.85 179.51L2049.3 182.54ZM2067.17 185H2071.61V176.84H2078.36V185H2082.77V165.44H2078.36V172.97H2071.61V165.44H2067.17V185ZM2095.28 185.36C2100.56 185.36 2104.16 181.52 2104.16 175.13C2104.16 168.77 2100.56 165.08 2095.28 165.08C2090.03 165.08 2086.4 168.74 2086.4 175.13C2086.4 181.52 2090.03 185.36 2095.28 185.36ZM2095.28 181.55C2092.64 181.55 2090.93 179.06 2090.93 175.13C2090.93 171.23 2092.64 168.89 2095.28 168.89C2097.95 168.89 2099.63 171.23 2099.63 175.13C2099.63 179.06 2097.95 181.55 2095.28 181.55ZM2107.72 175.94C2107.72 182.51 2110.45 185.36 2115.52 185.36C2120.59 185.36 2123.26 182.51 2123.26 175.94V165.44H2119V176.39C2119 180.23 2117.71 181.55 2115.52 181.55C2113.33 181.55 2112.13 180.23 2112.13 176.39V165.44H2107.72V175.94ZM2127.7 185H2139.85V181.28H2132.14V165.44H2127.7V185ZM2143.17 185H2148.96C2154.69 185 2158.53 181.85 2158.53 175.13C2158.53 168.41 2154.69 165.44 2148.69 165.44H2143.17V185ZM2147.61 181.43V169.01H2148.45C2151.75 169.01 2154 170.45 2154 175.13C2154 179.81 2151.75 181.43 2148.45 181.43H2147.61ZM2168.42 185H2174.21C2179.94 185 2183.78 181.85 2183.78 175.13C2183.78 168.41 2179.94 165.44 2173.94 165.44H2168.42V185ZM2172.86 181.43V169.01H2173.7C2177 169.01 2179.25 170.45 2179.25 175.13C2179.25 179.81 2177 181.43 2173.7 181.43H2172.86ZM2195.39 185.36C2200.67 185.36 2204.27 181.52 2204.27 175.13C2204.27 168.77 2200.67 165.08 2195.39 165.08C2190.14 165.08 2186.51 168.74 2186.51 175.13C2186.51 181.52 2190.14 185.36 2195.39 185.36ZM2195.39 181.55C2192.75 181.55 2191.04 179.06 2191.04 175.13C2191.04 171.23 2192.75 168.89 2195.39 168.89C2198.06 168.89 2199.74 171.23 2199.74 175.13C2199.74 179.06 2198.06 181.55 2195.39 181.55ZM2214.16 185H2218.39V178.07C2218.39 175.76 2218.03 173.15 2217.82 170.99H2217.94L2219.86 175.25L2224.96 185H2229.49V165.44H2225.29V172.34C2225.29 174.65 2225.65 177.41 2225.86 179.48H2225.74L2223.79 175.16L2218.69 165.44H2214.16V185ZM2234.08 185H2246.65V181.28H2238.52V176.78H2245.18V173.09H2238.52V169.16H2246.35V165.44H2234.08V185ZM2248.51 185H2253.22L2255.05 181.01C2255.5 179.99 2255.92 179 2256.4 177.8H2256.52C2257.03 179 2257.48 179.99 2257.99 181.01L2259.91 185H2264.83L2259.43 175.16L2264.5 165.44H2259.79L2258.23 169.13C2257.84 170.03 2257.45 171.05 2257 172.28H2256.88C2256.31 171.05 2255.89 170.03 2255.44 169.13L2253.76 165.44H2248.81L2253.91 174.95L2248.51 185ZM2270.7 185H2275.11V169.16H2280.48V165.44H2265.3V169.16H2270.7V185Z" fill="#4E4E4E"/>
</svg>
