<svg width="199" height="20" xmlns="http://www.w3.org/2000/svg"><g fill="#595959" fill-rule="evenodd"><g fill="none"><path d="M3.956 13.313c-.113.09-.073.035-.06.009.024-.019.128-.118.06-.01m5.9-9.614C9.73-.62 7.683.154 4.786 1.846c.19-.119.19-.118.384-.23-.44.357-1.151.62-1.126 1.27a.784.784 0 0 1 .137-.396c-.266.386.117.915.13 1.307-.033.012.008.216.004.296a.877.877 0 0 0 .007-.064 4.518 4.518 0 0 1-.54 2.478c.018-.063-.2.3-.141.177C2.254 9.3.135 7.585.553 10.632l.007-.036c.277 3.015.907 3.825 3.065 2.837.085-.018.21-.07.295-.115l-.022.006a2.88 2.88 0 0 1 .373-.168c-.019.02.027.006-.038.04.016-.005.19-.089.117-.066.184-.08.646-.39.757-.47.04-.026.066-.04.092-.054a14.105 14.105 0 0 1-.589.388c.311-.173.924-.596 1.095-.758.158-.03.481-.33.664-.507-.052.105-.2.21-.271.302.124-.08.213-.19.332-.278.014-.023.04-.026.016 0 .15-.116 1.133-1.09.981-1.038l.12-.138c-.076.156.238-.244.157-.079.17-.221.39-.57.558-.726.137-.084.324-.662.42-.667l.074-.131a9.188 9.188 0 0 1-.803 1.268c1.49-1.808 2.086-4.214 1.903-6.544" fill="#FFDA55"/><path d="M7.715 12.804c-.064.028-.488.197-.428.097.043-.026.128-.055.216-.089.086-.046.316-.09.316-.135-1.645.37-3.045 1.338-4.267 2.52-1.55 1.294.373 2.811 1.298 3.312-.3-.273 1.14.779 1.265.62a2.782 2.782 0 0 1-.386-.3c.104.072 1.034.486.721.436 1.007.623 1.703-1.3 3.211-1.35-.196.16.787-.057.942-.013.534.064 1.354-.017 1.671.258-.04-.008-.754-.195-.36-.025.448.146.95.174 1.325.487.074.052.124.1.122.109-.44-.278.132.25.288.306-.275-.534.316.791 1.285-.022.839-.583 1.212-.511 1.958-1.208-.106.055-.113.039-.06-.021.507-.497 1.212-1.03 1.122-1.836.029-.226-.255-.602-.35-.64 0 0-3.957-3.117-5.431-2.88.316-.051.901.218 1.119.16-.383-.117-.966-.15-1.325-.27-.083.035-.58-.047-.737-.043 0 0-2.575.126-3.515.527" fill="#00A5FF"/><path d="M12.347.656a.402.402 0 0 1 .086.002.497.497 0 0 0-.313.096.514.514 0 0 1 .227-.098m.712.117c.167.046.334.1.439.146-.284-.095-.584-.162-.866-.25.097.02.261.058.427.104m-1.108 8.205c1.157 2.036 3.41 4.1 5.947 4.707l-.08-.008c2.77.996 2.547-2.21 2.56-3.966.011.088.025.177.034.266.006-.114.01-.228.012-.343.165-1.92-1.773-1.088-2.633-2.294l.006.024c-.537-.377-.75-.765-1.086-1.395l-.011.075c-1.5-3.079 1.525-3.312-2.748-4.974l.091.034c-.295-.22-.856-.286-1.216-.472-.702-.139-1.46.305-1.553 1.052l.026-.205c-.351 1.06-.33 2.11-.397 3.173 0 0 .088 2.099.308 2.61 0 0 .523 1.156.797 1.715" fill="#50E3C2"/></g><path d="M26.861 16.945c.855 0 1.539-.684 1.539-1.495v-3.696h3.631c3.077 0 4.786-2.115 4.786-4.594 0-2.5-1.688-4.593-4.786-4.593h-4.956c-.94 0-1.71.77-1.71 1.71V15.45c0 .811.684 1.495 1.496 1.495zm4.764-7.862H28.4V5.238h3.225c1.197 0 2.094.726 2.094 1.922 0 1.175-.897 1.923-2.094 1.923zm8.396 7.862c.727 0 1.325-.598 1.325-1.346v-5.597c.491-.641 1.282-.983 2.115-1.09.748-.107 1.303-.577 1.303-1.388 0-.62-.406-1.111-1.196-1.111-1.026 0-1.71.811-2.222 1.495v-.214c0-.726-.598-1.324-1.325-1.324-.79 0-1.388.598-1.388 1.324V15.6a1.34 1.34 0 0 0 1.346 1.346h.042zm11.088.128c3.418 0 5.47-2.478 5.47-5.426 0-2.927-2.052-5.405-5.47-5.405-3.397 0-5.448 2.478-5.448 5.405 0 2.948 2.051 5.426 5.448 5.426zm0-2.414c-1.688 0-2.628-1.389-2.628-3.012 0-1.602.94-2.991 2.628-2.991 1.688 0 2.65 1.389 2.65 2.99 0 1.624-.962 3.013-2.65 3.013zm11.387 2.414c1.24 0 2.371-.555 3.183-1.58v.106a1.34 1.34 0 0 0 1.346 1.346c.79 0 1.389-.598 1.389-1.346V3.785a1.34 1.34 0 0 0-1.346-1.346c-.79 0-1.389.598-1.389 1.346v4.038c-.812-1.047-1.965-1.581-3.183-1.581-2.628 0-4.572 2.05-4.572 5.426 0 3.44 1.966 5.405 4.572 5.405zm.833-2.414c-1.538 0-2.606-1.218-2.606-2.99 0-1.795 1.068-3.013 2.606-3.013.919 0 1.902.491 2.35 1.175v3.653c-.448.684-1.431 1.175-2.35 1.175zm11.11 2.414c1.687 0 2.926-.769 3.631-1.56v.086a1.34 1.34 0 0 0 1.346 1.346c.77 0 1.367-.598 1.367-1.346V7.694c0-.726-.598-1.324-1.324-1.324-.79 0-1.389.598-1.389 1.324v5.79c-.47.598-1.303 1.175-2.35 1.175-1.154 0-1.901-.47-1.901-1.901V7.694c0-.726-.598-1.324-1.325-1.324-.79 0-1.388.598-1.388 1.324v6.132c0 2.008 1.068 3.247 3.332 3.247zm13.843 0c1.453 0 2.52-.427 3.269-1.025.277-.214.427-.556.427-.876 0-.705-.641-1.175-1.303-1.175-.257 0-.492.064-.727.213-.47.3-.982.45-1.538.45-1.645 0-2.798-1.219-2.798-3.013 0-1.795 1.153-2.991 2.798-2.991.534 0 1.068.15 1.517.427.235.15.491.214.748.214.598 0 1.282-.427 1.282-1.154a.992.992 0 0 0-.129-.491c-.448-.833-1.944-1.41-3.546-1.41-3.183 0-5.47 2.243-5.47 5.405 0 3.183 2.287 5.426 5.47 5.426zm9.315 0c1.773 0 2.179-.555 2.179-1.239 0-.662-.428-1.175-1.197-1.175h-.235c-.427 0-.94-.32-.94-1.132V8.87h1.068c.62 0 1.154-.535 1.154-1.176 0-.662-.534-1.196-1.154-1.196h-1.068V4.896a1.34 1.34 0 0 0-1.346-1.346c-.79 0-1.388.598-1.388 1.346v1.602h-.663c-.64 0-1.175.534-1.175 1.154 0 .683.535 1.218 1.175 1.218h.663v5.383c0 1.837 1.025 2.82 2.927 2.82zm10.788-.128c.855 0 1.538-.684 1.538-1.495v-4.53h5.726c.705 0 1.303-.598 1.303-1.324 0-.748-.598-1.346-1.303-1.346h-5.726V5.238h5.875c.705 0 1.304-.599 1.304-1.325 0-.748-.599-1.346-1.304-1.346h-7.2c-.94 0-1.708.77-1.708 1.71V15.45c0 .811.683 1.495 1.495 1.495zm15.489.128c1.367 0 3.995-.491 3.995-1.709 0-.64-.577-1.09-1.154-1.09-.17 0-.363.043-.534.129a4.588 4.588 0 0 1-2.008.512c-1.752 0-2.799-1.09-2.97-2.392h6.367c.705 0 1.26-.577 1.26-1.24 0-.512-.15-1.089-.299-1.559-.726-2.136-2.5-3.482-4.828-3.482-3.14 0-5.34 2.414-5.34 5.405 0 3.311 2.37 5.426 5.511 5.426zm2.371-6.388h-5.084c.128-1.025.854-2.285 2.542-2.285 1.795 0 2.478 1.303 2.542 2.285zm9.443 6.388c1.367 0 3.995-.491 3.995-1.709 0-.64-.577-1.09-1.154-1.09-.17 0-.363.043-.534.129a4.587 4.587 0 0 1-2.008.512c-1.752 0-2.798-1.09-2.97-2.392h6.367c.705 0 1.26-.577 1.26-1.24 0-.512-.15-1.089-.299-1.559-.726-2.136-2.5-3.482-4.828-3.482-3.14 0-5.34 2.414-5.34 5.405 0 3.311 2.37 5.426 5.511 5.426zm2.371-6.388h-5.084c.128-1.025.854-2.285 2.542-2.285 1.795 0 2.478 1.303 2.542 2.285zm8.503 6.388c1.24 0 2.372-.555 3.183-1.58v.106a1.34 1.34 0 0 0 1.346 1.346c.79 0 1.389-.598 1.389-1.346V3.785a1.34 1.34 0 0 0-1.346-1.346c-.79 0-1.389.598-1.389 1.346v4.038c-.811-1.047-1.965-1.581-3.183-1.581-2.628 0-4.572 2.05-4.572 5.426 0 3.44 1.966 5.405 4.572 5.405zm.833-2.414c-1.538 0-2.606-1.218-2.606-2.99 0-1.795 1.068-3.013 2.606-3.013.919 0 1.902.491 2.35 1.175v3.653c-.448.684-1.431 1.175-2.35 1.175zm13.673 2.414c2.607 0 4.572-1.965 4.572-5.405 0-3.375-1.944-5.426-4.572-5.426-1.218 0-2.371.534-3.183 1.58V3.765c0-.727-.598-1.325-1.325-1.325-.79 0-1.388.598-1.388 1.325v11.835a1.34 1.34 0 0 0 1.346 1.346c.769 0 1.367-.598 1.367-1.346v-.107c.812 1.026 1.944 1.581 3.183 1.581zm-.854-2.414c-.876 0-1.88-.491-2.329-1.154V9.852c.449-.683 1.453-1.196 2.329-1.196 1.58 0 2.627 1.218 2.627 3.012 0 1.795-1.046 2.991-2.627 2.991zm10.404 2.414c1.346 0 2.563-.491 3.268-1.324 0 1.025.962 1.196 1.175 1.196h.214c.726 0 1.325-.598 1.325-1.346v-5.448c0-2.97-2.158-3.91-4.508-3.91-1.197 0-3.504.428-4.145 1.453a1.043 1.043 0 0 0 .876 1.58c.171.001.342-.063.492-.148.705-.47 1.495-.662 2.307-.662 1.367 0 2.264.683 2.264 1.73v1.389c-.683-.812-1.901-1.26-3.268-1.26-1.645 0-3.59.918-3.59 3.332 0 2.307 1.945 3.418 3.59 3.418zm1.09-1.837c-1.069 0-1.945-.556-1.945-1.517 0-1.004.876-1.56 1.944-1.56.876 0 1.73.3 2.18.898v1.282c-.45.598-1.304.897-2.18.897zm12.39 1.837c1.453 0 2.521-.427 3.269-1.025.278-.214.427-.556.427-.876 0-.705-.64-1.175-1.303-1.175-.256 0-.491.064-.726.213-.47.3-.983.45-1.539.45-1.645 0-2.798-1.219-2.798-3.013 0-1.795 1.153-2.991 2.798-2.991.535 0 1.069.15 1.517.427.235.15.492.214.748.214.598 0 1.282-.427 1.282-1.154a.992.992 0 0 0-.128-.491c-.449-.833-1.944-1.41-3.547-1.41-3.183 0-5.469 2.243-5.469 5.405 0 3.183 2.286 5.426 5.47 5.426zm13.353-.128c.79 0 1.346-.705 1.346-1.367 0-.257-.086-.534-.257-.77l-2.713-3.631 2.393-2.735c.192-.235.299-.513.299-.812 0-.683-.598-1.281-1.282-1.281-.342 0-.684.15-.919.427l-3.653 4.315V3.764c0-.727-.598-1.325-1.324-1.325-.79 0-1.39.598-1.39 1.325v11.835a1.34 1.34 0 0 0 1.347 1.346c.769 0 1.367-.598 1.367-1.346v-1.431l1.24-1.325 2.413 3.525c.257.385.705.577 1.133.577z" fill-rule="nonzero"/></g></svg>