<?xml version="1.0" encoding="utf-8"?>
<!-- Generator: Adobe Illustrator 24.0.1, SVG Export Plug-In . SVG Version: 6.00 Build 0)  -->
<svg version="1.1" id="Layer_1" xmlns="http://www.w3.org/2000/svg" xmlns:xlink="http://www.w3.org/1999/xlink" x="0px" y="0px"
	 viewBox="0 0 20.4 20" style="enable-background:new 0 0 20.4 20;" xml:space="preserve">
<style type="text/css">
	.st0{fill-rule:evenodd;clip-rule:evenodd;fill:#FFDA55;}
	.st1{fill-rule:evenodd;clip-rule:evenodd;fill:#00A5FF;}
	.st2{fill-rule:evenodd;clip-rule:evenodd;fill:#50E3C2;}
</style>
<g>
	<g>
		<path class="st0" d="M3.7,13.3C3.6,13.4,3.6,13.4,3.7,13.3C3.7,13.3,3.8,13.2,3.7,13.3 M9.6,3.7C9.5-0.6,7.4,0.2,4.5,1.9
			c0.2-0.1,0.2-0.1,0.4-0.2C4.5,2,3.8,2.3,3.8,2.9c0-0.1,0.1-0.3,0.1-0.4C3.6,2.9,4,3.4,4,3.8c0,0,0,0.2,0,0.3c0,0,0,0,0-0.1
			c0.1,0.9-0.1,1.7-0.5,2.5c0-0.1-0.2,0.3-0.1,0.2C2,9.3-0.1,7.6,0.3,10.7l0,0c0.3,3,0.9,3.8,3.1,2.8c0.1,0,0.2-0.1,0.3-0.1l0,0
			c0.1-0.1,0.2-0.1,0.4-0.2c0,0,0,0,0,0c0,0,0.2-0.1,0.1-0.1c0.2-0.1,0.6-0.4,0.8-0.5c0,0,0.1,0,0.1-0.1c-0.2,0.1-0.4,0.3-0.6,0.4
			c0.3-0.2,0.9-0.6,1.1-0.8c0.2,0,0.5-0.3,0.7-0.5c-0.1,0.1-0.2,0.2-0.3,0.3C6,12,6,11.9,6.2,11.8c0,0,0,0,0,0c0.2-0.1,1.1-1.1,1-1
			l0.1-0.1c-0.1,0.2,0.2-0.2,0.2-0.1C7.6,10.3,7.8,10,8,9.8c0.1-0.1,0.3-0.7,0.4-0.7L8.5,9C8.3,9.4,8,9.9,7.7,10.3
			C9.2,8.5,9.8,6.1,9.6,3.7"/>
		<path class="st1" d="M7.4,12.8C7.4,12.9,7,13,7,12.9c0,0,0.1-0.1,0.2-0.1c0.1,0,0.3-0.1,0.3-0.1c-1.6,0.4-3,1.3-4.3,2.5
			c-1.5,1.3,0.4,2.8,1.3,3.3c-0.3-0.3,1.1,0.8,1.3,0.6c-0.1-0.1-0.3-0.2-0.4-0.3c0.1,0.1,1,0.5,0.7,0.4c1,0.6,1.7-1.3,3.2-1.4
			c-0.2,0.2,0.8-0.1,0.9,0c0.5,0.1,1.4,0,1.7,0.3c0,0-0.8-0.2-0.4,0c0.4,0.1,0.9,0.2,1.3,0.5c0.1,0.1,0.1,0.1,0.1,0.1
			c-0.4-0.3,0.1,0.2,0.3,0.3c-0.3-0.5,0.3,0.8,1.3,0c0.8-0.6,1.2-0.5,2-1.2c-0.1,0.1-0.1,0-0.1,0c0.5-0.5,1.2-1,1.1-1.8
			c0-0.2-0.3-0.6-0.4-0.6c0,0-4-3.1-5.4-2.9c0.3-0.1,0.9,0.2,1.1,0.2c-0.4-0.1-1-0.1-1.3-0.3c-0.1,0-0.6,0-0.7,0
			C11,12.3,8.4,12.4,7.4,12.8"/>
		<path class="st2" d="M12.1,0.7C12.1,0.7,12.1,0.7,12.1,0.7c0,0-0.1,0-0.2,0.1C11.9,0.7,12,0.7,12.1,0.7 M12.8,0.8
			c0.2,0,0.3,0.1,0.4,0.1c-0.3-0.1-0.6-0.2-0.9-0.2C12.5,0.7,12.6,0.8,12.8,0.8 M11.7,9c1.2,2,3.4,4.1,5.9,4.7l-0.1,0
			c2.8,1,2.5-2.2,2.6-4c0,0.1,0,0.2,0,0.3c0-0.1,0-0.2,0-0.3c0.2-1.9-1.8-1.1-2.6-2.3l0,0C17,7,16.8,6.6,16.4,6l0,0.1
			c-1.5-3.1,1.5-3.3-2.7-5l0.1,0c-0.3-0.2-0.9-0.3-1.2-0.5C11.9,0.5,11.1,1,11,1.7l0-0.2c-0.4,1.1-0.3,2.1-0.4,3.2
			c0,0,0.1,2.1,0.3,2.6C10.9,7.3,11.5,8.4,11.7,9"/>
	</g>
</g>
</svg>
